<svg id="Illustration" xmlns="http://www.w3.org/2000/svg" xmlns:xlink="http://www.w3.org/1999/xlink" viewBox="0 0 2814.69 2720.24"><defs><linearGradient id="linear-gradient" x1="-941.49" y1="2838.93" x2="-377.63" y2="1147.34" gradientTransform="matrix(-1, 0, 0, 1, 1155.78, 0)" gradientUnits="userSpaceOnUse"><stop offset="0" stop-color="#09005d"/><stop offset="1" stop-color="#1a0f91"/></linearGradient><linearGradient id="linear-gradient-2" x1="1908.58" y1="1828.16" x2="1867.9" y2="2716.28" gradientTransform="translate(3710 5996.04) rotate(-180)" xlink:href="#linear-gradient"/><linearGradient id="linear-gradient-3" x1="2708.56" y1="-145.91" x2="1604.74" y2="1285.31" gradientUnits="userSpaceOnUse"><stop offset="0" stop-color="#4f52ff"/><stop offset="1" stop-color="#4042e2"/></linearGradient><linearGradient id="linear-gradient-4" x1="3156.22" y1="388.85" x2="2052.4" y2="1820.07" gradientTransform="translate(1636.5 -1356.49) rotate(45)" xlink:href="#linear-gradient-3"/><linearGradient id="linear-gradient-5" x1="2624.44" y1="896.37" x2="2362.52" y2="1518.43" gradientTransform="translate(3203.59 -1377.45) rotate(77.78)" xlink:href="#linear-gradient-3"/><linearGradient id="linear-gradient-6" x1="-84.98" y1="4864.87" x2="-242.04" y2="5502.95" gradientTransform="translate(3053.55 -4510.01)" xlink:href="#linear-gradient"/><linearGradient id="linear-gradient-7" x1="18417.17" y1="-28183.85" x2="18046.09" y2="-27522.66" gradientTransform="translate(-1192.26 4633.17) rotate(-135)" gradientUnits="userSpaceOnUse"><stop offset="0" stop-color="#ff928e"/><stop offset="1" stop-color="#fe7062"/></linearGradient><linearGradient id="linear-gradient-8" x1="18694.32" y1="-28028.32" x2="18323.24" y2="-27367.13" xlink:href="#linear-gradient-7"/><linearGradient id="linear-gradient-9" x1="20610.41" y1="-29391.13" x2="20239.33" y2="-28729.93" gradientTransform="matrix(0.71, 0.71, 0.71, -0.71, -1682.11, 4143.32)" xlink:href="#linear-gradient-7"/><linearGradient id="linear-gradient-10" x1="1492.28" y1="881.31" x2="1671.87" y2="672.86" gradientTransform="translate(963.55 -988.91) rotate(45)" gradientUnits="userSpaceOnUse"><stop offset="0" stop-color="#e1473d"/><stop offset="1" stop-color="#e9605a"/></linearGradient><linearGradient id="linear-gradient-11" x1="1325.7" y1="-13.94" x2="794.64" y2="788.33" gradientTransform="matrix(1, 0, 0, 1, 0, 0)" xlink:href="#linear-gradient-7"/><linearGradient id="linear-gradient-12" x1="1734.38" y1="372.54" x2="1670.29" y2="723.38" gradientTransform="matrix(1, 0, 0, 1, 0, 0)" xlink:href="#linear-gradient-7"/><linearGradient id="linear-gradient-13" x1="1368.42" y1="1583.61" x2="1548.01" y2="1375.16" gradientTransform="translate(46.48 -50.88) rotate(1.91)" xlink:href="#linear-gradient-10"/><linearGradient id="linear-gradient-14" x1="1649.49" y1="1223.12" x2="1118.44" y2="2025.39" gradientTransform="translate(1423.87 -695.63) rotate(45)" xlink:href="#linear-gradient-7"/><linearGradient id="linear-gradient-15" x1="1643.41" y1="1087.88" x2="1525.34" y2="1475.82" gradientTransform="matrix(1, 0, 0, 1, 0, 0)" xlink:href="#linear-gradient-7"/><linearGradient id="linear-gradient-16" x1="1063.18" y1="1319.11" x2="1343.75" y2="993.45" gradientTransform="translate(1093.06 -665.14) rotate(45)" xlink:href="#linear-gradient-10"/><linearGradient id="linear-gradient-17" x1="1502.29" y1="755.92" x2="672.63" y2="2009.3" gradientTransform="translate(1093.06 -665.14) rotate(45)" xlink:href="#linear-gradient-7"/><linearGradient id="linear-gradient-18" x1="1504.77" y1="542.43" x2="1325.98" y2="1085.55" gradientTransform="matrix(1, 0, 0, 1, 0, 0)" xlink:href="#linear-gradient-7"/><linearGradient id="linear-gradient-19" x1="1580.72" y1="1335.33" x2="1793.44" y2="1088.42" gradientTransform="translate(1292.65 -953.87) rotate(45)" xlink:href="#linear-gradient-10"/><linearGradient id="linear-gradient-20" x1="1913.65" y1="908.33" x2="1284.62" y2="1858.61" gradientTransform="translate(1292.65 -953.87) rotate(45)" xlink:href="#linear-gradient-7"/><linearGradient id="linear-gradient-21" x1="1904.26" y1="793.85" x2="1755.83" y2="1225.65" gradientTransform="matrix(1, 0, 0, 1, 0, 0)" xlink:href="#linear-gradient-7"/><linearGradient id="linear-gradient-22" x1="1820.01" y1="1760.68" x2="1473.53" y2="1847.74" gradientUnits="userSpaceOnUse"><stop offset="0" stop-color="#febbba"/><stop offset="1" stop-color="#ff928e"/></linearGradient><linearGradient id="linear-gradient-23" x1="2301.07" y1="1118.93" x2="1811.92" y2="1756.51" gradientTransform="matrix(1, 0, 0, 1, 0, 0)" xlink:href="#linear-gradient-7"/><linearGradient id="linear-gradient-24" x1="2553.7" y1="1312.75" x2="2064.55" y2="1950.32" gradientTransform="matrix(1, 0, 0, 1, 0, 0)" xlink:href="#linear-gradient-7"/><linearGradient id="linear-gradient-25" x1="778.7" y1="1442.79" x2="728.57" y2="1292.41" gradientTransform="translate(1290.1)" xlink:href="#linear-gradient-22"/><linearGradient id="linear-gradient-26" x1="1971.28" y1="1316.95" x2="2151.44" y2="1395.28" xlink:href="#linear-gradient-22"/><linearGradient id="linear-gradient-27" x1="5191.11" y1="5669.33" x2="5406.33" y2="5669.33" gradientTransform="matrix(-0.69, -0.73, -0.73, 0.69, 9787.37, 1318.79)" xlink:href="#linear-gradient"/><linearGradient id="linear-gradient-28" x1="1960.05" y1="1342.77" x2="2140.22" y2="1421.1" xlink:href="#linear-gradient-22"/><linearGradient id="linear-gradient-29" x1="2440.35" y1="3244.17" x2="2664.26" y2="3244.17" gradientTransform="matrix(-1, 0, 0, 1, 4753.76, 0)" xlink:href="#linear-gradient"/><linearGradient id="linear-gradient-30" x1="2853.86" y1="3034.68" x2="2043.11" y2="3265.77" xlink:href="#linear-gradient-3"/><linearGradient id="linear-gradient-31" x1="2461.02" y1="3139.02" x2="2524.09" y2="3139.02" gradientTransform="matrix(-1, 0, 0, 1, 4753.76, 0)" xlink:href="#linear-gradient-22"/><linearGradient id="linear-gradient-32" x1="1993.97" y1="3239.34" x2="2079.77" y2="3239.34" gradientTransform="matrix(-1, 0, 0, 1, 4753.76, 0)" xlink:href="#linear-gradient"/><linearGradient id="linear-gradient-33" x1="2401.88" y1="2987.71" x2="2907.13" y2="3316.72" xlink:href="#linear-gradient-3"/><linearGradient id="linear-gradient-34" x1="2060.06" y1="3086.44" x2="2135.43" y2="3086.44" gradientTransform="matrix(-1, 0, 0, 1, 4753.76, 0)" xlink:href="#linear-gradient-22"/><linearGradient id="linear-gradient-35" x1="-283.58" y1="3197.12" x2="866.59" y2="1606.96" gradientTransform="matrix(-1, 0, 0, 1, 2420.76, 0)" xlink:href="#linear-gradient"/><linearGradient id="linear-gradient-36" x1="-21.81" y1="3753.23" x2="-28.8" y2="3107.39" gradientTransform="translate(1990 -609.6) rotate(-7.3)" xlink:href="#linear-gradient-3"/><linearGradient id="linear-gradient-37" x1="-136.84" y1="2847.2" x2="-139.95" y2="2771.81" gradientTransform="translate(1990 -609.6) rotate(-7.3)" xlink:href="#linear-gradient-3"/><linearGradient id="linear-gradient-38" x1="-140.77" y1="2734.02" x2="-125.23" y2="2950.05" gradientTransform="translate(1990 -609.6) rotate(-7.3)" xlink:href="#linear-gradient-3"/><linearGradient id="linear-gradient-39" x1="73.16" y1="2838.55" x2="70.05" y2="2763.17" gradientTransform="translate(1990 -609.6) rotate(-7.3)" xlink:href="#linear-gradient-3"/><linearGradient id="linear-gradient-40" x1="68.66" y1="2718.97" x2="84.2" y2="2935" gradientTransform="translate(1990 -609.6) rotate(-7.3)" xlink:href="#linear-gradient-3"/><linearGradient id="linear-gradient-41" x1="-17.6" y1="2613.78" x2="-38.58" y2="2767.62" gradientTransform="translate(1990 -609.6) rotate(-7.3)" xlink:href="#linear-gradient-3"/><linearGradient id="linear-gradient-42" x1="2323.59" y1="2399.24" x2="2335.4" y2="2146.23" xlink:href="#linear-gradient-3"/><linearGradient id="linear-gradient-43" x1="2284.29" y1="2379.53" x2="2401.91" y2="2379.53" gradientTransform="matrix(1, 0, 0, 1, 0, 0)" xlink:href="#linear-gradient"/><linearGradient id="linear-gradient-44" x1="2299.02" y1="2379.61" x2="2388.54" y2="2379.61" xlink:href="#linear-gradient-3"/><linearGradient id="linear-gradient-45" x1="2397.34" y1="1938.28" x2="2226.65" y2="2266.53" xlink:href="#linear-gradient-22"/><linearGradient id="linear-gradient-46" x1="2643.71" y1="1381.8" x2="2154.56" y2="2019.38" gradientTransform="matrix(1, 0, 0, 1, 0, 0)" xlink:href="#linear-gradient-7"/><linearGradient id="linear-gradient-47" x1="2578.64" y1="1317.87" x2="2006.87" y2="2162.88" gradientTransform="matrix(1, 0, 0, 1, 0, 0)" xlink:href="#linear-gradient-10"/><linearGradient id="linear-gradient-48" x1="-493.3" y1="3185.27" x2="-346.42" y2="3185.27" gradientTransform="translate(1290.1)" xlink:href="#linear-gradient"/><linearGradient id="linear-gradient-49" x1="-125.58" y1="3011.99" x2="-659.96" y2="3431.58" gradientTransform="translate(1290.1)" xlink:href="#linear-gradient-3"/><linearGradient id="linear-gradient-50" x1="-452.46" y1="3018.05" x2="-480.51" y2="3262.92" gradientTransform="translate(1290.1)" xlink:href="#linear-gradient-22"/><linearGradient id="linear-gradient-51" x1="-30.65" y1="3132.71" x2="-565.03" y2="3552.31" gradientTransform="translate(1290.1)" xlink:href="#linear-gradient-3"/><linearGradient id="linear-gradient-52" x1="-269.63" y1="3189" x2="-58.19" y2="3189" gradientTransform="translate(1290.1)" xlink:href="#linear-gradient"/><linearGradient id="linear-gradient-53" x1="-118.31" y1="2976.66" x2="-146.37" y2="3221.53" gradientTransform="translate(993.21 65.77) rotate(-3.61)" xlink:href="#linear-gradient-22"/><linearGradient id="linear-gradient-54" x1="947.13" y1="2919.56" x2="791.95" y2="2069.46" gradientTransform="matrix(1, 0, 0, 1, 0, 0)" xlink:href="#linear-gradient"/><linearGradient id="linear-gradient-55" x1="288.59" y1="2456.14" x2="1307.36" y2="1545.32" xlink:href="#linear-gradient-3"/><linearGradient id="linear-gradient-56" x1="-340.52" y1="1590.84" x2="-275.36" y2="1412.89" gradientTransform="translate(1290.1)" xlink:href="#linear-gradient-22"/><linearGradient id="linear-gradient-57" x1="1116.9" y1="1511.4" x2="985.34" y2="1238.15" xlink:href="#linear-gradient-22"/><linearGradient id="linear-gradient-58" x1="892.83" y1="1150.66" x2="1053.94" y2="1339.36" gradientTransform="matrix(1, 0, 0, 1, 0, 0)" xlink:href="#linear-gradient"/><linearGradient id="linear-gradient-59" x1="1056.24" y1="1540.61" x2="924.67" y2="1267.36" xlink:href="#linear-gradient-22"/><linearGradient id="linear-gradient-60" x1="1944.23" y1="830.76" x2="1412.94" y2="1367.1" xlink:href="#linear-gradient-3"/><linearGradient id="linear-gradient-61" x1="1320.56" y1="1415.97" x2="1263.21" y2="2056.92" xlink:href="#linear-gradient-22"/><linearGradient id="linear-gradient-62" x1="1685.05" y1="1363.16" x2="1544.84" y2="1509.61" xlink:href="#linear-gradient-22"/><linearGradient id="linear-gradient-63" x1="1529.76" y1="1434.69" x2="1472.41" y2="2075.64" xlink:href="#linear-gradient-22"/><linearGradient id="linear-gradient-64" x1="1347.07" y1="1807.8" x2="783.71" y2="1821.29" xlink:href="#linear-gradient-22"/><linearGradient id="linear-gradient-65" x1="2481.62" y1="573.27" x2="1496.58" y2="1301.93" gradientTransform="matrix(1, 0, 0, 1, 0, 0)" xlink:href="#linear-gradient"/><linearGradient id="linear-gradient-66" x1="2447.56" y1="527.21" x2="1462.52" y2="1255.87" gradientTransform="matrix(1, 0, 0, 1, 0, 0)" xlink:href="#linear-gradient"/></defs><title>main</title><path d="M641.33,2900.29a44.26,44.26,0,0,0,44.15,44.11H3072.92a44.26,44.26,0,0,0,44.15-44.11l19.86-1372c0-24.26-28.58-71.62-81-68.06L722.71,1399.87a111.25,111.25,0,0,0-114.16,113.79Z" transform="translate(-447.66 -534.76)" style="fill:url(#linear-gradient)"/><path d="M684.92,2858a41.9,41.9,0,0,0,41.77,41.77H3015.34a41.89,41.89,0,0,0,41.77-41.77l18.75-1245.51c-2.21-75-67.92-101.89-107.76-100.3l-2236.21-60a78.2,78.2,0,0,0-80.23,80Z" transform="translate(-447.66 -534.76)" style="fill:#91b3fa"/><path d="M3032.38,2266.27h-.09a6.11,6.11,0,0,1-6-6.21l1.48-101a6.12,6.12,0,0,1,6.12-6h.09a6.12,6.12,0,0,1,6,6.22l-1.48,101A6.12,6.12,0,0,1,3032.38,2266.27Z" transform="translate(-447.66 -534.76)" style="fill:#bdd0fb"/><path d="M3036,2018.75h-.1a6.12,6.12,0,0,1-6-6.21l5.68-386.87c-.1-23-7.08-41.32-20.73-54.41-25.49-24.41-65.94-23.16-67.65-23.08L2232.45,1529a6.12,6.12,0,0,1-6-6.28,5.86,5.86,0,0,1,6.29-6l714.32,19.16c4.44-.26,47.52-1,76.21,26.48,16.14,15.47,24.38,36.77,24.5,63.31l-5.68,387A6.12,6.12,0,0,1,3036,2018.75Z" transform="translate(-447.66 -534.76)" style="fill:#bdd0fb"/><rect x="447.66" y="2937.74" width="2814.69" height="120.55" rx="5.65" transform="translate(3262.34 5461.28) rotate(180)" style="fill:url(#linear-gradient-2)"/><circle cx="2455.68" cy="1297.18" r="515.1" transform="translate(-645.65 1581.6) rotate(-45)" style="fill:#bdd0fb"/><circle cx="2008.02" cy="762.42" r="439.62" style="fill:url(#linear-gradient-3)"/><path d="M2455.67,1758.82c-254.54,0-461.63-207.09-461.63-461.64s207.09-461.64,461.63-461.64,461.64,207.09,461.64,461.64S2710.22,1758.82,2455.67,1758.82Zm0-901.26c-242.4,0-439.61,197.21-439.61,439.62s197.21,439.62,439.61,439.62,439.62-197.21,439.62-439.62S2698.08,857.56,2455.67,857.56Z" transform="translate(-447.66 -534.76)" style="fill:#fff"/><circle cx="2455.68" cy="1297.18" r="268.01" transform="translate(-645.65 1581.6) rotate(-45)" style="fill:url(#linear-gradient-4)"/><path d="M2455.67,1587.21c-159.92,0-290-130.11-290-290s130.11-290,290-290,290,130.11,290,290S2615.6,1587.21,2455.67,1587.21Zm0-536c-135.64,0-246,110.35-246,246s110.35,246,246,246,246-110.36,246-246S2591.32,1051.19,2455.67,1051.19Z" transform="translate(-447.66 -534.76)" style="fill:#fff"/><circle cx="2455.68" cy="1297.18" r="103.84" transform="translate(220.37 2887.82) rotate(-77.78)" style="fill:url(#linear-gradient-5)"/><path d="M2455.67,1423a125.86,125.86,0,1,1,125.86-125.86A126,126,0,0,1,2455.67,1423Zm0-207.68a81.82,81.82,0,1,0,81.82,81.82A81.91,81.91,0,0,0,2455.67,1215.36Z" transform="translate(-447.66 -534.76)" style="fill:#fff"/><rect x="2814.4" y="569.17" width="19.63" height="743.45" transform="translate(3708.31 3068.46) rotate(-135)" style="fill:url(#linear-gradient-6)"/><path d="M2564.26,1163.31c8-8,45.51,29.58,37.55,37.55l-139.26,109.48c-5.15,4-11.81-2.62-7.77-7.77Z" transform="translate(-447.66 -534.76)" style="fill:url(#linear-gradient-7)"/><path d="M3093.71,685.29l70.72,7-97.08,97.09a150.11,150.11,0,0,1-121,43.22h0Z" transform="translate(-447.66 -534.76)" style="fill:url(#linear-gradient-8)"/><path d="M3079.83,671.41l-7-70.72-97.09,97.08a150.1,150.1,0,0,0-43.22,121h0Z" transform="translate(-447.66 -534.76)" style="fill:url(#linear-gradient-9)"/><circle cx="1675.5" cy="668.65" r="133.89" transform="translate(-429.72 845.84) rotate(-45)" style="fill:url(#linear-gradient-10)"/><circle cx="1227.84" cy="133.89" r="129.44" style="fill:url(#linear-gradient-11)"/><path d="M1568.76,620.32a5.35,5.35,0,0,1-2.44-.59,5.43,5.43,0,0,1-2.41-7.3,124.39,124.39,0,0,1,111.59-68.7,126.44,126.44,0,0,1,22.53,2,5.44,5.44,0,1,1-2,10.7,114.81,114.81,0,0,0-20.58-1.85,113.58,113.58,0,0,0-101.88,62.73A5.43,5.43,0,0,1,1568.76,620.32Z" transform="translate(-447.66 -534.76)" style="fill:#fff;opacity:0.78"/><circle cx="1678.32" cy="671.47" r="109.55" transform="translate(191.56 1615.86) rotate(-76.72)" style="fill:#fff;opacity:0.78"/><path d="M1667.57,752.91V741c-12.43-.5-24.72-3.43-33.45-7.26a6.9,6.9,0,0,1-3.81-8.14l3-11.1a7,7,0,0,1,9.44-4.55,80.65,80.65,0,0,0,30.87,6.5c12,0,20.9-4.06,20.9-12.37,0-7.51-6.9-12-23.53-16.43-23.74-6.49-40.77-16.84-40.77-37.73,0-18.86,13.79-33.27,37.72-37.12V600.88a7,7,0,0,1,7-6.94h7a7,7,0,0,1,6.95,6.94v10.7a88.71,88.71,0,0,1,26.5,4.76,6.91,6.91,0,0,1,4.32,8.35L1716.91,635a6.93,6.93,0,0,1-9.14,4.68,72.39,72.39,0,0,0-26-4.72c-14.2,0-18.26,5.88-18.26,11.16,0,6.49,8.52,10.95,27,16.63,26.37,7.91,37.32,18.86,37.32,38.54,0,18-13.38,34.28-39.35,38.34v13.33a7,7,0,0,1-6.94,7h-7A7,7,0,0,1,1667.57,752.91Z" transform="translate(-447.66 -534.76)" style="fill:url(#linear-gradient-12)"/><circle cx="1551.64" cy="1370.95" r="133.89" transform="translate(-492.42 -482.36) rotate(-1.91)" style="fill:url(#linear-gradient-13)"/><circle cx="1551.64" cy="1370.95" r="129.44" transform="translate(-962.6 963.96) rotate(-45)" style="fill:url(#linear-gradient-14)"/><path d="M1444.9,1322.62a5.35,5.35,0,0,1-2.44-.59,5.43,5.43,0,0,1-2.4-7.3,124.37,124.37,0,0,1,111.58-68.7,126.28,126.28,0,0,1,22.53,2,5.44,5.44,0,1,1-2,10.7,114.81,114.81,0,0,0-20.58-1.85,113.58,113.58,0,0,0-101.88,62.73A5.42,5.42,0,0,1,1444.9,1322.62Z" transform="translate(-447.66 -534.76)" style="fill:#fff;opacity:0.78"/><circle cx="1554.46" cy="1373.77" r="109.55" transform="translate(-675.82 1900.07) rotate(-72.23)" style="fill:#fff;opacity:0.78"/><path d="M1543.71,1455.21V1443.3c-12.42-.5-24.71-3.43-33.44-7.26a6.88,6.88,0,0,1-3.81-8.14l3-11.1a7,7,0,0,1,9.44-4.55,80.7,80.7,0,0,0,30.88,6.5c12,0,20.89-4.06,20.89-12.37,0-7.51-6.9-12-23.53-16.43-23.73-6.49-40.77-16.84-40.77-37.73,0-18.87,13.79-33.27,37.73-37.12v-11.92a6.94,6.94,0,0,1,6.94-6.94h7a7,7,0,0,1,7,6.94v10.7a88.72,88.72,0,0,1,26.51,4.76,6.92,6.92,0,0,1,4.32,8.35l-2.79,10.26a6.92,6.92,0,0,1-9.14,4.68,72.39,72.39,0,0,0-26-4.72c-14.2,0-18.26,5.88-18.26,11.16,0,6.49,8.52,11,27,16.63,26.37,7.91,37.32,18.86,37.32,38.54,0,18-13.38,34.28-39.35,38.34v13.33a7,7,0,0,1-6.94,7h-7A7,7,0,0,1,1543.71,1455.21Z" transform="translate(-447.66 -534.76)" style="fill:url(#linear-gradient-15)"/><circle cx="1349.42" cy="986.87" r="209.18" transform="translate(-750.24 708.47) rotate(-45)" style="fill:url(#linear-gradient-16)"/><circle cx="1349.42" cy="986.87" r="202.22" transform="translate(-750.24 708.47) rotate(-45)" style="fill:url(#linear-gradient-17)"/><path d="M1182.67,907.74a4.87,4.87,0,0,1-4.36-7.07,190.75,190.75,0,0,1,171.11-105.35,193.36,193.36,0,0,1,34.55,3.1,4.88,4.88,0,0,1-1.75,9.61,183.22,183.22,0,0,0-32.8-3,181,181,0,0,0-162.39,100A4.87,4.87,0,0,1,1182.67,907.74Z" transform="translate(-447.66 -534.76)" style="fill:#fff;opacity:0.78"/><circle cx="1353.83" cy="991.27" r="171.16" transform="translate(-752.07 712.88) rotate(-45)" style="fill:#fff;opacity:0.78"/><path d="M1337,1118.51v-18.62c-19.41-.77-38.61-5.36-52.25-11.32a10.78,10.78,0,0,1-6-12.73l4.73-17.34a10.85,10.85,0,0,1,14.74-7.11c13.52,5.67,30.23,10.16,48.24,10.16,18.69,0,32.64-6.34,32.64-19.33,0-11.73-10.78-18.7-36.76-25.67-37.08-10.14-63.7-26.3-63.7-58.94,0-29.48,21.55-52,58.94-58V881a10.85,10.85,0,0,1,10.85-10.85h10.94A10.85,10.85,0,0,1,1370.3,881v16.72c18,.72,31,3.79,41.42,7.44a10.79,10.79,0,0,1,6.74,13l-4.35,16a10.81,10.81,0,0,1-14.28,7.31,113,113,0,0,0-40.62-7.37c-22.18,0-28.52,9.19-28.52,17.43,0,10.14,13.31,17.11,42.15,26,41.2,12.36,58.31,29.47,58.31,60.21,0,28.2-20.92,53.56-61.48,59.9v20.83a10.85,10.85,0,0,1-10.85,10.85h-10.94A10.85,10.85,0,0,1,1337,1118.51Z" transform="translate(-447.66 -534.76)" style="fill:url(#linear-gradient-18)"/><circle cx="1797.74" cy="1083.43" r="158.59" transform="translate(-687.21 1053.76) rotate(-45)" style="fill:url(#linear-gradient-19)"/><circle cx="1797.74" cy="1083.43" r="153.32" transform="translate(-687.21 1053.76) rotate(-45)" style="fill:url(#linear-gradient-20)"/><path d="M1671.31,1024.65a4.82,4.82,0,0,1-2.2-.53,4.91,4.91,0,0,1-2.17-6.59A145.8,145.8,0,0,1,1797.74,937a147.4,147.4,0,0,1,26.41,2.38,4.91,4.91,0,1,1-1.76,9.66A136.84,136.84,0,0,0,1675.7,1022,4.92,4.92,0,0,1,1671.31,1024.65Z" transform="translate(-447.66 -534.76)" style="fill:#fff;opacity:0.78"/><circle cx="1801.08" cy="1086.77" r="129.77" transform="translate(-688.59 1057.11) rotate(-45)" style="fill:#fff;opacity:0.78"/><path d="M1788.35,1183.24v-14.12c-14.72-.59-29.28-4.06-39.62-8.59a8.16,8.16,0,0,1-4.51-9.64l3.59-13.15a8.23,8.23,0,0,1,11.17-5.39,95.6,95.6,0,0,0,36.58,7.7c14.17,0,24.74-4.81,24.74-14.66,0-8.89-8.17-14.17-27.87-19.46-28.11-7.68-48.29-19.94-48.29-44.69,0-22.34,16.34-39.4,44.69-44v-14.12a8.22,8.22,0,0,1,8.22-8.23h8.3a8.23,8.23,0,0,1,8.23,8.23v12.67a105.2,105.2,0,0,1,31.39,5.64,8.19,8.19,0,0,1,5.12,9.88l-3.3,12.17a8.21,8.21,0,0,1-10.83,5.54,85.59,85.59,0,0,0-30.79-5.59c-16.82,0-21.63,7-21.63,13.21,0,7.69,10.09,13,32,19.7,31.23,9.37,44.21,22.34,44.21,45.65,0,21.38-15.86,40.61-46.62,45.41v15.8a8.23,8.23,0,0,1-8.22,8.23h-8.3A8.23,8.23,0,0,1,1788.35,1183.24Z" transform="translate(-447.66 -534.76)" style="fill:url(#linear-gradient-21)"/><g style="opacity:0.54"><rect x="2874.56" y="2361.38" width="112.91" height="511.06" transform="translate(5414.37 4699.06) rotate(180)" style="fill:#fff"/><rect x="2685.89" y="2537.02" width="112.91" height="335.42" transform="translate(5037.04 4874.7) rotate(180)" style="fill:#fff"/><rect x="2497.22" y="2102.93" width="112.91" height="769.5" transform="translate(4659.7 4440.61) rotate(180)" style="fill:#fff"/><rect x="2308.56" y="2687.57" width="112.91" height="184.86" transform="translate(4282.37 5025.25) rotate(180)" style="fill:#fff"/><rect x="2119.89" y="2205.81" width="112.91" height="666.63" transform="translate(3905.03 4543.49) rotate(180)" style="fill:#fff"/><rect x="1931.22" y="2321.23" width="112.92" height="551.2" transform="translate(3527.7 4658.91) rotate(180)" style="fill:#fff"/><rect x="1742.55" y="2446.69" width="112.91" height="425.74" transform="translate(3150.36 4784.37) rotate(180)" style="fill:#fff"/><rect x="1553.89" y="1947.36" width="112.91" height="925.07" transform="translate(2773.03 4285.04) rotate(180)" style="fill:#fff"/><rect x="1365.22" y="2045.22" width="112.91" height="827.21" transform="translate(2395.69 4382.9) rotate(180)" style="fill:#fff"/><rect x="1176.55" y="2193.26" width="112.91" height="679.17" transform="translate(2018.36 4530.94) rotate(180)" style="fill:#fff"/><rect x="987.88" y="2704.73" width="112.91" height="167.71" transform="translate(1641.02 5042.41) rotate(180)" style="fill:#fff"/><rect x="799.22" y="2378.94" width="112.91" height="493.49" transform="translate(1263.69 4716.62) rotate(180)" style="fill:#fff"/></g><path d="M1494.07,1824.24s-16.2-42.65-35.12-38.74-39.63,18.44-39.63,18.44l-30.4,41.12s85.34,33.62,115.36,14.35c0,0,87.17,15.06,197.24-3-15.93-33.64-25.43-67.32-31-93.47C1614.76,1794.5,1554.71,1818.07,1494.07,1824.24Z" transform="translate(-447.66 -534.76)" style="fill:url(#linear-gradient-22)"/><path d="M1955.82,1514.9s-124.81,157.19-285.3,248c5.57,26.15,15.07,59.83,31,93.47,83.26-13.66,179.62-46.27,261.31-118.72Z" transform="translate(-447.66 -534.76)" style="fill:url(#linear-gradient-23)"/><path d="M2111.46,2211.62c-24.41-115.93-48.81-183-130.54-402.8-25.72-69.15-49.07-139.12-37.78-212l12.68-81.89s158.82-53.74,334.86-2.26c0,0,240.19,104.34,77.05,619.65C2294.19,2214.57,2208.13,2238,2111.46,2211.62Z" transform="translate(-447.66 -534.76)" style="fill:url(#linear-gradient-24)"/><path d="M1982.85,1410.39l41.18,98.94a19.71,19.71,0,0,0,14.9,11.84c23.74,4.08,81.17,10.44,118.88-14.36a9.59,9.59,0,0,0,2.57-13.48l-76.09-109.23Z" transform="translate(-447.66 -534.76)" style="fill:url(#linear-gradient-25)"/><path d="M2025.44,1259c-1.73,1.62-73,141.57-73,141.57l80.77,39,87.25-122.6S2054.4,1231.76,2025.44,1259Z" transform="translate(-447.66 -534.76)" style="fill:url(#linear-gradient-26)"/><path d="M2083.76,1331.69l-40.28,67.15a12.48,12.48,0,0,1-2.21,2.75c-4.8,4.47-21.2,17.45-33.89-.23-10.81-15.06-21-28.76-31.82-34.41a12.88,12.88,0,0,0-17.38,5.72c-6.64,13.16-19.5,40-27.57,65.4a12.81,12.81,0,0,0,7.46,15.73c16.35,6.63,48.68,18.61,77.36,22.57a12.88,12.88,0,0,0,12.18-5.18c12.34-16.91,47.13-64.15,59-76,11-11,31.38-6.84,40.56-4.21a12.94,12.94,0,0,0,10.29-1.35c9.3-5.6,25.54-19.56,10.69-43.19a12.89,12.89,0,0,1,4-17.52c10.39-6.84,21.66-19.66,10.92-40.44-10.88-21-30.29-22.92-43.52-21.3a13.4,13.4,0,0,1-14-7.81,8.49,8.49,0,0,0-6.64-5.23,12.5,12.5,0,0,1-10.12-14.69c2.33-11.9.57-27.36-18.43-37.81-34.85-19.16-65.38,12.06-73.14,38.42s31.2,45,55.71,48.09c18,2.28,27.88,21.93,31.85,32.2A12.91,12.91,0,0,1,2083.76,1331.69Z" transform="translate(-447.66 -534.76)" style="fill:url(#linear-gradient-27)"/><path d="M2069.64,1415.32s17.34-40.79,37.17-39.13,35.45,21.43,10.87,43.64C2087.1,1447.47,2069.64,1415.32,2069.64,1415.32Z" transform="translate(-447.66 -534.76)" style="fill:url(#linear-gradient-28)"/><path d="M2095.82,3233.34c38.36,3.32,104.94,8.7,157.42,11,31.55,1.39,49.71-1.7,60.17-5.89,0,1.18,0,2.3-.1,3.33A10.84,10.84,0,0,1,2303,3252c-99.17,5.54-178,1.92-206.12.21a7.73,7.73,0,0,1-6.29-11.61A62.77,62.77,0,0,1,2095.82,3233.34Z" transform="translate(-447.66 -534.76)" style="fill:url(#linear-gradient-29)"/><path d="M2253.24,3244.35c-52.48-2.31-119.06-7.69-157.42-11,37.72-46.27,157.42-77.45,157.42-77.45h33.81c23.25,33.51,26.62,65.42,26.36,82.57C2303,3242.65,2284.79,3245.74,2253.24,3244.35Z" transform="translate(-447.66 -534.76)" style="fill:url(#linear-gradient-30)"/><path d="M2292.74,3100.69l-3.17,62.61a14.3,14.3,0,0,1-12.2,13.45,55.77,55.77,0,0,1-25.4-2.11,16.92,16.92,0,0,1-11.37-13l-10.93-60.95Z" transform="translate(-447.66 -534.76)" style="fill:url(#linear-gradient-31)"/><path d="M2731.85,3243.88c16.64-2.32,24.16-11,27.32-20.2l.06.25c2.45,9.75-3.23,19.84-14.57,24.65-13.71,5.8-28.7,6.79-40.34,6.31-12.48-.51-23.94-5.68-30.24-13.95l-.09-.12C2686.52,3247,2704.11,3247.75,2731.85,3243.88Z" transform="translate(-447.66 -534.76)" style="fill:url(#linear-gradient-32)"/><path d="M2653.42,3100.29h27.88c42.47-.87,69.14,88.71,77.87,123.39-3.16,9.24-10.68,17.88-27.32,20.2-27.74,3.87-45.33,3.14-57.86-3.06-22.95-30.19-34.32-74.41-39.79-100.22C2628,3111.25,2653.42,3100.29,2653.42,3100.29Z" transform="translate(-447.66 -534.76)" style="fill:url(#linear-gradient-33)"/><path d="M2677.72,3042.18l15.48,61.58a16.71,16.71,0,0,1-8.69,18.94c-8.67,4.44-20.86,9.11-32.06,7.76a14,14,0,0,1-11.39-9.31l-22.73-64.78Z" transform="translate(-447.66 -534.76)" style="fill:url(#linear-gradient-34)"/><path d="M2696.19,3060c-19.27,17.09-81.92,19.34-81.92,19.34-225.67-541.65-319.76-690.76-319.76-690.76,32.59,204.45,7,729.22,7,729.22-37.24,16.43-85.25,0-85.25,0-3-334.7-50.15-694.35-110.92-924.47,152.53-3.43,235.42-36.68,261.91-57.63C2494.41,2340.67,2696.19,3060,2696.19,3060Z" transform="translate(-447.66 -534.76)" style="fill:url(#linear-gradient-35)"/><path d="M2066.93,2344.67,2095,2519.24a57.49,57.49,0,0,0,63.84,47.8l420.07-51.24a41.47,41.47,0,0,0,36.54-40.27c.9-45.1-.87-125.38-19.8-198.51Z" transform="translate(-447.66 -534.76)" style="fill:url(#linear-gradient-36)"/><path d="M2162.32,2556.19a1.16,1.16,0,0,1,0-2.32c1.61,0,3.24-.18,4.85-.37l4.27-.52a1.13,1.13,0,0,1,1.29,1,1.16,1.16,0,0,1-1,1.29l-4.26.52c-1.68.2-3.39.33-5.06.39Zm30.69-3.52a1.16,1.16,0,0,1-.14-2.31l9.2-1.12a1.11,1.11,0,0,1,1.29,1,1.16,1.16,0,0,1-1,1.29l-9.2,1.12Zm-51.88,0a1.14,1.14,0,0,1-.41-.07,56.6,56.6,0,0,1-8.53-4.09,1.15,1.15,0,0,1-.41-1.58,1.17,1.17,0,0,1,1.59-.42,53.29,53.29,0,0,0,8.17,3.92,1.16,1.16,0,0,1-.41,2.24Zm82.55-3.73a1.16,1.16,0,0,1-.14-2.31l9.2-1.12a1.11,1.11,0,0,1,1.29,1,1.15,1.15,0,0,1-1,1.29l-9.2,1.13Zm30.67-3.74a1.16,1.16,0,0,1-.14-2.31l9.2-1.13a1.13,1.13,0,0,1,1.29,1,1.15,1.15,0,0,1-1,1.29l-9.2,1.13Zm30.67-3.75a1.15,1.15,0,0,1-.14-2.3l9.2-1.13a1.13,1.13,0,0,1,1.3,1,1.16,1.16,0,0,1-1,1.29l-9.2,1.12Zm30.67-3.74a1.16,1.16,0,0,1-.14-2.31l9.2-1.12a1.14,1.14,0,0,1,1.3,1,1.17,1.17,0,0,1-1,1.29l-9.2,1.12Zm-199-3.33a1.17,1.17,0,0,1-.93-.46,56.4,56.4,0,0,1-5-8,1.17,1.17,0,0,1,.51-1.56,1.15,1.15,0,0,1,1.55.51,53.91,53.91,0,0,0,4.81,7.67,1.15,1.15,0,0,1-.22,1.62A1.16,1.16,0,0,1,2116.74,2534.37Zm229.63-.41a1.16,1.16,0,0,1-.15-2.31l9.2-1.12a1.12,1.12,0,0,1,1.3,1,1.16,1.16,0,0,1-1,1.29l-9.2,1.12Zm30.67-3.74a1.16,1.16,0,0,1-.15-2.31l9.21-1.12a1.13,1.13,0,0,1,1.29,1,1.16,1.16,0,0,1-1,1.29l-9.2,1.12Zm30.67-3.74a1.16,1.16,0,0,1-.15-2.31l9.21-1.12a1.13,1.13,0,0,1,1.29,1,1.16,1.16,0,0,1-1,1.29l-9.2,1.12Zm30.67-3.74a1.16,1.16,0,0,1-.14-2.31l9.2-1.12a1.11,1.11,0,0,1,1.29,1,1.16,1.16,0,0,1-1,1.29l-9.2,1.12Zm30.67-3.74a1.16,1.16,0,0,1-.14-2.31l9.2-1.12a1.12,1.12,0,0,1,1.29,1,1.16,1.16,0,0,1-1,1.29l-9.2,1.12Zm30.67-3.74a1.16,1.16,0,0,1-.14-2.31l9.2-1.12a1.12,1.12,0,0,1,1.29,1,1.15,1.15,0,0,1-1,1.29l-9.2,1.13Zm30.67-3.75a1.15,1.15,0,0,1-.14-2.3l9.2-1.13a1.13,1.13,0,0,1,1.29,1,1.15,1.15,0,0,1-1,1.29l-9.2,1.13Zm30.67-3.74a1.15,1.15,0,0,1-.14-2.3l6-.73c1-.13,2.09-.3,3.11-.51a1.16,1.16,0,0,1,.47,2.27c-1.09.22-2.18.4-3.29.54l-6,.72Zm-455.26-1.9a1.16,1.16,0,0,1-1.14-1l-1.47-9.15a1.16,1.16,0,1,1,2.29-.37l1.47,9.15a1.16,1.16,0,0,1-1,1.33Zm483.43-9.11a1.18,1.18,0,0,1-.85-.37,1.17,1.17,0,0,1,.06-1.64,38.5,38.5,0,0,0,5.83-6.84,1.16,1.16,0,0,1,1.92,1.29,40.33,40.33,0,0,1-6.17,7.25A1.17,1.17,0,0,1,2589.23,2496.76Zm-488.33-21.4a1.15,1.15,0,0,1-1.14-1l-1.47-9.15a1.15,1.15,0,1,1,2.28-.37L2102,2474a1.16,1.16,0,0,1-1,1.33Zm500.91-6h0a1.16,1.16,0,0,1-1.11-1.21v-.64q.09-4.12.13-8.59a1.17,1.17,0,0,1,1.16-1.15h0a1.16,1.16,0,0,1,1.15,1.17c0,3-.07,5.86-.13,8.6,0,.22,0,.46,0,.71A1.16,1.16,0,0,1,2601.81,2469.41ZM2096,2444.86a1.18,1.18,0,0,1-1.15-1l-1.47-9.15a1.16,1.16,0,0,1,1-1.33,1.15,1.15,0,0,1,1.33,1l1.47,9.15a1.16,1.16,0,0,1-1,1.33Zm505.91-6.36a1.16,1.16,0,0,1-1.16-1.14q-.06-4.52-.18-9.26a1.16,1.16,0,0,1,1.14-1.18h0a1.15,1.15,0,0,1,1.16,1.13q.12,4.75.18,9.28a1.15,1.15,0,0,1-1.14,1.17Zm-510.82-24.15a1.16,1.16,0,0,1-1.14-1l-1.47-9.15a1.15,1.15,0,0,1,2.28-.37l1.48,9.16a1.15,1.15,0,0,1-1,1.32Zm509.86-6.74a1.16,1.16,0,0,1-1.16-1.1q-.23-4.56-.5-9.25a1.16,1.16,0,1,1,2.31-.13q.29,4.7.5,9.27a1.15,1.15,0,0,1-1.1,1.21Zm-514.76-23.77a1.16,1.16,0,0,1-1.15-1l-1.47-9.16a1.15,1.15,0,0,1,1-1.32,1.14,1.14,0,0,1,1.33,1l1.47,9.15a1.16,1.16,0,0,1-1,1.33Zm512.67-7.06a1.16,1.16,0,0,1-1.15-1.06c-.27-3-.55-6.12-.86-9.22a1.17,1.17,0,0,1,1-1.27,1.12,1.12,0,0,1,1.26,1q.46,4.67.86,9.25a1.14,1.14,0,0,1-1.05,1.25Zm-517.58-23.44a1.16,1.16,0,0,1-1.14-1l-1.47-9.15a1.16,1.16,0,1,1,2.29-.37l1.47,9.15a1.16,1.16,0,0,1-1,1.33Zm514.25-7.29a1.16,1.16,0,0,1-1.15-1q-.59-4.56-1.26-9.16a1.16,1.16,0,0,1,1-1.31,1.14,1.14,0,0,1,1.32,1c.44,3.07.87,6.14,1.26,9.19a1.15,1.15,0,0,1-1,1.3ZM2089,2343a1.16,1.16,0,0,1-.15-2.31l9.2-1.17a1.11,1.11,0,0,1,1.3,1,1.16,1.16,0,0,1-1,1.3l-9.2,1.17Zm30.65-3.92a1.16,1.16,0,0,1-.14-2.31l9.19-1.17a1.11,1.11,0,0,1,1.3,1,1.17,1.17,0,0,1-1,1.3l-9.2,1.17Zm30.65-3.92a1.16,1.16,0,0,1-.15-2.31l9.2-1.18a1.13,1.13,0,0,1,1.3,1,1.16,1.16,0,0,1-1,1.29l-9.19,1.18Zm30.65-3.92a1.16,1.16,0,0,1-.15-2.31l9.19-1.18a1.11,1.11,0,0,1,1.3,1,1.15,1.15,0,0,1-1,1.29l-9.19,1.18Zm30.65-3.92a1.16,1.16,0,0,1-.15-2.31l9.19-1.18a1.11,1.11,0,0,1,1.3,1,1.16,1.16,0,0,1-1,1.3l-9.2,1.18Zm30.65-3.93a1.15,1.15,0,0,1-1.15-1,1.17,1.17,0,0,1,1-1.3l9.19-1.17a1.12,1.12,0,0,1,1.3,1,1.16,1.16,0,0,1-1,1.3l-9.19,1.17Zm30.64-3.92a1.16,1.16,0,0,1-.14-2.31L2282,2316a1.12,1.12,0,0,1,1.3,1,1.17,1.17,0,0,1-1,1.3l-9.2,1.17Zm30.65-3.92a1.16,1.16,0,0,1-.15-2.31l9.2-1.18a1.16,1.16,0,1,1,.29,2.3l-9.19,1.18Zm287.21,0a1.16,1.16,0,0,1-1.14-1q-.83-4.54-1.73-9.09a1.16,1.16,0,0,1,.91-1.36,1.15,1.15,0,0,1,1.36.91c.6,3,1.19,6.08,1.74,9.13a1.15,1.15,0,0,1-.93,1.34A.75.75,0,0,1,2590.79,2315.53Zm-256.56-3.9a1.16,1.16,0,0,1-.15-2.31l9.2-1.18a1.13,1.13,0,0,1,1.29,1,1.15,1.15,0,0,1-1,1.29l-9.19,1.18Zm30.65-3.92a1.16,1.16,0,0,1-.15-2.31l9.2-1.18a1.1,1.1,0,0,1,1.29,1,1.14,1.14,0,0,1-1,1.29l-9.19,1.18Zm30.65-3.93a1.15,1.15,0,0,1-.15-2.3l9.19-1.18a1.11,1.11,0,0,1,1.3,1,1.16,1.16,0,0,1-1,1.3l-9.19,1.18Zm30.64-3.92a1.14,1.14,0,0,1-1.14-1,1.16,1.16,0,0,1,1-1.3l9.19-1.17a1.12,1.12,0,0,1,1.3,1,1.16,1.16,0,0,1-1,1.3l-9.2,1.17Zm30.65-3.92a1.16,1.16,0,0,1-.15-2.31l9.2-1.17a1.12,1.12,0,0,1,1.3,1,1.17,1.17,0,0,1-1,1.3l-9.19,1.17Zm30.65-3.92a1.16,1.16,0,0,1-.15-2.31l9.2-1.18a1.13,1.13,0,0,1,1.29,1,1.15,1.15,0,0,1-1,1.29l-9.19,1.18Zm30.65-3.92a1.16,1.16,0,0,1-.15-2.31l9.2-1.18a1.12,1.12,0,0,1,1.29,1,1.14,1.14,0,0,1-1,1.29l-9.19,1.18Zm66.24-2.79a1.16,1.16,0,0,1-1.12-.88c-.37-1.51-.75-3-1.13-4.51l-2.55.33a1.16,1.16,0,0,1-.29-2.3l4.57-.59.26,1c.47,1.84.94,3.68,1.39,5.52a1.16,1.16,0,0,1-.85,1.4A.9.9,0,0,1,2584.36,2285.31Zm-35.59-1.13a1.16,1.16,0,0,1-.15-2.31l9.19-1.18a1.1,1.1,0,0,1,1.3,1,1.16,1.16,0,0,1-1,1.3l-9.19,1.18Z" transform="translate(-447.66 -534.76)" style="fill:#fff"/><path d="M2173.67,2201.68l-.47-13.68a10.49,10.49,0,0,1,7.1-7.08c12.82-3.75,44.78-11.56,61.89-1.89l4.34,15.41Z" transform="translate(-447.66 -534.76)" style="fill:url(#linear-gradient-37)"/><path d="M2212.85,2183.45a18.85,18.85,0,0,1-9,1.14,8.24,8.24,0,0,1-7.25-7.12l-5.41-42.33,21.54-2.75,5.41,42.3A8.28,8.28,0,0,1,2212.85,2183.45Z" transform="translate(-447.66 -534.76)" style="fill:url(#linear-gradient-38)"/><path d="M2382.32,2175l-.47-13.68a10.49,10.49,0,0,1,7.11-7.08c12.81-3.75,44.77-11.56,61.88-1.89l4.35,15.41Z" transform="translate(-447.66 -534.76)" style="fill:url(#linear-gradient-39)"/><path d="M2421.51,2156.75a18.87,18.87,0,0,1-9.05,1.14,8.23,8.23,0,0,1-7.25-7.12l-6-46.79,21.54-2.75,6,46.76A8.28,8.28,0,0,1,2421.51,2156.75Z" transform="translate(-447.66 -534.76)" style="fill:url(#linear-gradient-40)"/><path d="M2190.28,2145.8,2421,2108.49a11.28,11.28,0,0,0,9.5-10.54,95.22,95.22,0,0,0-3-29.46,27,27,0,0,0-28.8-19.3c-43.35,4.5-153.37,18.61-210.94,50.36a21.35,21.35,0,0,0-10.91,16.33c-.74,6.57-.68,15.2,2.45,23.6A10.07,10.07,0,0,0,2190.28,2145.8Z" transform="translate(-447.66 -534.76)" style="fill:url(#linear-gradient-41)"/><path d="M2184.59,2136.34a3.1,3.1,0,0,1-3-2.39,57.4,57.4,0,0,1-.87-18.38,21.5,21.5,0,0,1,12.66-16.66c12.51-5.48,36.53-15.15,56.84-18.33a3.09,3.09,0,0,1,1,6.11c-20.36,3.19-45.47,13.56-55.33,17.88a15.3,15.3,0,0,0-9,11.84,51.34,51.34,0,0,0,.78,16.15,3.09,3.09,0,0,1-2.32,3.7A2.79,2.79,0,0,1,2184.59,2136.34Z" transform="translate(-447.66 -534.76)" style="fill:#91b3fa"/><path d="M2065.5,2210.17c74.73-10.53,398.07-55.37,493.58-56.06a19.29,19.29,0,0,1,18.35,12.73c8.78,24.41,27.43,81.35,33.5,139.37a16.88,16.88,0,0,1-11.68,17.74L2389.76,2392l-76.26,9.76-234.57-16.2a18,18,0,0,1-16.55-14.76c-5.21-28.92-16.27-96.91-14-141.88A20,20,0,0,1,2065.5,2210.17Z" transform="translate(-447.66 -534.76)" style="fill:url(#linear-gradient-42)"/><path d="M2313,2384.23h-.07l-9.25-.63a1.17,1.17,0,0,1-1.08-1.24,1.19,1.19,0,0,1,1.24-1.08l9.24.64a1.16,1.16,0,0,1-.08,2.32Zm-30.82-2.13h-.08l-9.25-.64a1.16,1.16,0,0,1-1.07-1.24,1.17,1.17,0,0,1,1.23-1.08l9.25.64a1.16,1.16,0,0,1-.08,2.32Zm50.47-.39a1.16,1.16,0,0,1-.15-2.31l9.2-1.17a1.12,1.12,0,0,1,1.3,1,1.17,1.17,0,0,1-1,1.3l-9.19,1.17Zm-81.3-1.74h-.08l-9.24-.64a1.17,1.17,0,0,1-1.08-1.24,1.21,1.21,0,0,1,1.24-1.07l9.24.63a1.16,1.16,0,0,1-.08,2.32Zm-30.82-2.13h-.08l-9.25-.64a1.16,1.16,0,0,1-1.07-1.24,1.19,1.19,0,0,1,1.23-1.07l9.25.64a1.16,1.16,0,0,1-.08,2.31Zm142.77-.05a1.16,1.16,0,0,1-.15-2.31l9.2-1.17a1.11,1.11,0,0,1,1.29,1,1.15,1.15,0,0,1-1,1.29l-9.19,1.18Zm-173.59-2.08h-.08l-9.25-.64a1.16,1.16,0,0,1-1.08-1.23,1.19,1.19,0,0,1,1.24-1.08l9.25.64a1.16,1.16,0,0,1-.08,2.31Zm-30.83-2.13h-.08l-9.25-.64a1.16,1.16,0,0,1-1.07-1.24,1.18,1.18,0,0,1,1.23-1.07l9.25.64a1.16,1.16,0,0,1-.08,2.31Zm234.73-1.23a1.16,1.16,0,0,1-.36-2.26l8.82-2.86a1.16,1.16,0,1,1,.72,2.2l-8.82,2.87A1.12,1.12,0,0,1,2393.56,2372.35Zm-265.55-.9h-.08l-9.25-.64a1.15,1.15,0,0,1-1.08-1.23,1.18,1.18,0,0,1,1.24-1.08l9.24.64a1.16,1.16,0,0,1,1.08,1.24A1.15,1.15,0,0,1,2128,2371.45Zm-30.83-2.13h-.08l-9.25-.63a1.16,1.16,0,0,1-1.07-1.24,1.19,1.19,0,0,1,1.23-1.08l9.25.64a1.16,1.16,0,0,1-.08,2.31Zm325.76-6.52a1.16,1.16,0,0,1-.36-2.26l8.82-2.86a1.16,1.16,0,0,1,.72,2.2l-8.82,2.87A1.49,1.49,0,0,1,2422.94,2362.8Zm-344.75-8.74a1.17,1.17,0,0,1-1.14-1c-.48-2.88-1-6-1.49-9.17a1.15,1.15,0,0,1,1-1.32,1.17,1.17,0,0,1,1.33,1c.51,3.21,1,6.27,1.49,9.15a1.16,1.16,0,0,1-1,1.33Zm374.14-.81a1.16,1.16,0,0,1-.36-2.26l8.82-2.86a1.16,1.16,0,0,1,.71,2.2l-8.81,2.87A1.49,1.49,0,0,1,2452.33,2353.25Zm29.38-9.55a1.16,1.16,0,0,1-.35-2.26l8.81-2.86a1.16,1.16,0,0,1,.72,2.2l-8.82,2.87A1.49,1.49,0,0,1,2481.71,2343.7Zm29.39-9.55a1.16,1.16,0,0,1-.36-2.26l8.82-2.86a1.16,1.16,0,1,1,.71,2.2l-8.81,2.87A1.49,1.49,0,0,1,2511.1,2334.15Zm29.39-9.55a1.16,1.16,0,0,1-.36-2.26l8.81-2.86a1.16,1.16,0,1,1,.72,2.2l-8.82,2.87A1.41,1.41,0,0,1,2540.49,2324.6Zm-467-1.11a1.15,1.15,0,0,1-1.14-1q-.63-4.51-1.25-9.2a1.17,1.17,0,0,1,1-1.3,1.15,1.15,0,0,1,1.3,1c.41,3.11.82,6.18,1.24,9.19a1.15,1.15,0,0,1-1,1.3Zm496.37-8.44a1.16,1.16,0,0,1-.36-2.26l8.81-2.86a1.16,1.16,0,0,1,.72,2.2l-8.81,2.87A1.49,1.49,0,0,1,2569.87,2315.05Zm21.49-14.6a1.16,1.16,0,0,1-1.15-1q-.6-4.59-1.27-9.16a1.16,1.16,0,1,1,2.29-.34q.67,4.59,1.28,9.21a1.17,1.17,0,0,1-1,1.3Zm-521.64-7.64a1.16,1.16,0,0,1-1.15-1c-.32-3.08-.62-6.17-.91-9.25a1.16,1.16,0,1,1,2.31-.21c.28,3.07.59,6.15.91,9.21a1.17,1.17,0,0,1-1,1.28Zm516.69-22.87a1.17,1.17,0,0,1-1.14-.94q-.89-4.58-1.84-9.07a1.16,1.16,0,0,1,2.27-.48q.95,4.52,1.85,9.11a1.16,1.16,0,0,1-.92,1.36ZM2067.24,2262a1.16,1.16,0,0,1-1.16-1.1q-.24-4.71-.39-9.29a1.16,1.16,0,0,1,1.12-1.2,1.22,1.22,0,0,1,1.2,1.13q.13,4.55.38,9.24a1.15,1.15,0,0,1-1.09,1.22Zm512.46-22.23a1.15,1.15,0,0,1-1.12-.88c-.77-3-1.53-6-2.31-9a1.16,1.16,0,0,1,.83-1.41,1.14,1.14,0,0,1,1.41.82q1.17,4.41,2.31,9a1.16,1.16,0,0,1-.84,1.41A1.33,1.33,0,0,1,2579.7,2239.77Zm-512.73-8.6h0a1.21,1.21,0,0,1-1.15-1.23,2.12,2.12,0,0,1,0-.24,2.4,2.4,0,0,1,2.1-2.21l7.33-1a1.13,1.13,0,0,1,1.3,1,1.16,1.16,0,0,1-1,1.31l-7.32,1.09-.15.23A1.09,1.09,0,0,1,2067,2231.17Zm29.89-5.4a1.16,1.16,0,0,1-.16-2.3l9.19-1.28a1.16,1.16,0,0,1,.31,2.3l-9.18,1.27Zm30.62-4.21a1.16,1.16,0,0,1-.16-2.31l9.19-1.26a1.16,1.16,0,1,1,.31,2.3l-9.18,1.26Zm30.63-4.17a1.15,1.15,0,0,1-.15-2.3l9.19-1.24a1.16,1.16,0,1,1,.31,2.29l-9.19,1.24Zm30.64-4.1a1.16,1.16,0,0,1-.15-2.31l9.19-1.22a1.18,1.18,0,0,1,1.3,1,1.16,1.16,0,0,1-1,1.3l-9.19,1.22Zm382.79-3.34a1.15,1.15,0,0,1-1.11-.82q-1.38-4.62-2.7-8.86a1.16,1.16,0,1,1,2.21-.69c.89,2.83,1.79,5.8,2.71,8.88a1.16,1.16,0,0,1-.78,1.45A1.24,1.24,0,0,1,2571.54,2210Zm-352.15-.7a1.16,1.16,0,0,1-.15-2.31l9.19-1.2a1.16,1.16,0,1,1,.3,2.3l-9.19,1.2Zm30.65-4a1.16,1.16,0,0,1-.15-2.31l9.2-1.17a1.14,1.14,0,0,1,1.3,1,1.17,1.17,0,0,1-1,1.3l-9.19,1.17Zm30.66-3.9a1.15,1.15,0,0,1-.15-2.3l9.2-1.16a1.12,1.12,0,0,1,1.29,1,1.16,1.16,0,0,1-1,1.29l-9.2,1.15Zm30.66-3.82a1.15,1.15,0,0,1-.14-2.3l9.2-1.13a1.11,1.11,0,0,1,1.29,1,1.16,1.16,0,0,1-1,1.29l-9.2,1.12Zm30.67-3.72a1.16,1.16,0,0,1-.14-2.31l9.21-1.1a1.13,1.13,0,0,1,1.28,1,1.16,1.16,0,0,1-1,1.29l-9.2,1.09Zm30.69-3.61a1.17,1.17,0,0,1-1.15-1,1.15,1.15,0,0,1,1-1.28l9.21-1.06a1.16,1.16,0,0,1,.26,2.3l-9.21,1.06Zm30.7-3.48a1.16,1.16,0,0,1-.13-2.31l9.22-1a1.12,1.12,0,0,1,1.28,1,1.16,1.16,0,0,1-1,1.28l-9.21,1Zm30.73-3.31a1.16,1.16,0,0,1-.12-2.31l9.22-.95a1.18,1.18,0,0,1,1.27,1,1.15,1.15,0,0,1-1,1.27l-9.22,1Zm127.93-2.91a1.17,1.17,0,0,1-1.1-.78c-.74-2.14-1.43-4.08-2.05-5.82l-1.56,0h0a1.16,1.16,0,0,1,0-2.32l1.87,0a1.85,1.85,0,0,1,1.77,1.14c.66,1.84,1.4,3.93,2.2,6.24a1.16,1.16,0,0,1-.71,1.48A1.31,1.31,0,0,1,2562.08,2180.52Zm-97.19-.18a1.16,1.16,0,0,1-.11-2.31l9.23-.87a1.11,1.11,0,0,1,1.26,1,1.16,1.16,0,0,1-1,1.26l-9.23.87Zm30.77-2.78a1.16,1.16,0,0,1-1.15-1.06,1.15,1.15,0,0,1,1.06-1.25q4.74-.4,9.24-.76a1.12,1.12,0,0,1,1.25,1.07,1.15,1.15,0,0,1-1.06,1.24q-4.5.36-9.24.76Zm30.82-2.3a1.16,1.16,0,0,1-.07-2.31q4.83-.32,9.26-.55a1.16,1.16,0,0,1,.13,2.32q-4.43.24-9.25.54Z" transform="translate(-447.66 -534.76)" style="fill:#fff"/><path d="M2386.68,2425l-66.81,8.55a17.4,17.4,0,0,1-19.11-13l-16-63.31a17.38,17.38,0,0,1,14.71-21.44l80.26-10.27a17.38,17.38,0,0,1,19.62,16.52l2.49,65A17.39,17.39,0,0,1,2386.68,2425Z" transform="translate(-447.66 -534.76)" style="fill:url(#linear-gradient-43)"/><path d="M2377,2414.2l-50.85,6.51a13.26,13.26,0,0,1-14.55-9.87l-12.13-48.18a13.22,13.22,0,0,1,11.19-16.32l61.09-7.82a13.23,13.23,0,0,1,14.93,12.58l1.9,49.49A13.24,13.24,0,0,1,2377,2414.2Z" transform="translate(-447.66 -534.76)" style="fill:url(#linear-gradient-44)"/><path d="M2337.21,1901.88c15.76,65.12,16.18,128.82,13.78,152a18.06,18.06,0,0,1-16.7,16.18c-10,.7-23.52,1.62-35.64,2.31-13.32.77-28.1-7.65-38-14.68a5.94,5.94,0,0,0-8.75,7.52c4.85,9.5,13.29,17,21.66,23.34,5,3.83,21.77,10.63,20.61,18.16a13.39,13.39,0,0,1-3.35,6.3c-9.3,11.16-23.37,17.12-37.26,21.38-1.74.54-3.58,1.11-4.81,2.46-.35,9,27.28,19,34.42,21.33a79.41,79.41,0,0,0,33.23,3.86c27.81-2.93,53.48-22.12,68.46-45.26,40-61.85,60.73-136.55,68.29-193.68C2415.92,1885.9,2359.7,1895.33,2337.21,1901.88Z" transform="translate(-447.66 -534.76)" style="fill:url(#linear-gradient-45)"/><path d="M2453.16,1929c29.7-224.35-143.19-396.86-143.19-396.86L2207.1,1652.07c78.1,97.34,115.22,186.54,132.18,256.6C2361.77,1902.12,2415.92,1891.78,2453.16,1929Z" transform="translate(-447.66 -534.76)" style="fill:url(#linear-gradient-46)"/><path d="M2336.83,1907.58a6.38,6.38,0,0,1-6.19-4.88c-20.9-86.36-65-171.86-130.95-254.11a6.37,6.37,0,1,1,9.93-8c67.17,83.73,112.06,170.9,133.41,259.1a6.38,6.38,0,0,1-4.7,7.69A6.47,6.47,0,0,1,2336.83,1907.58Z" transform="translate(-447.66 -534.76)" style="fill:url(#linear-gradient-47)"/><path d="M943.68,3237.57a12.61,12.61,0,0,0-.33-3.32c-16.55-65.58-98.66-106.44-98.66-106.44l-32.54,2.55c-18.71,57.81-16.3,93.27-13.3,109.06.09.44.22.86.34,1.29C826,3243.11,881.27,3244.68,943.68,3237.57Z" transform="translate(-447.66 -534.76)" style="fill:url(#linear-gradient-48)"/><path d="M799.19,3240.71c1.45,5.27,5.34,9.38,10.32,10.43,38.18,8,98.87,1.57,124.35-1.76,5.62-.74,9.73-5.94,9.82-11.81C881.27,3244.68,826,3243.11,799.19,3240.71Z" transform="translate(-447.66 -534.76)" style="fill:url(#linear-gradient-49)"/><path d="M799.07,3081.9l13.78,66.34c1,4.86,4.75,8.5,9.27,8.93a92.22,92.22,0,0,0,21.35-.34c7.11-1,12.06-8.27,10.8-16l-9.58-58.9Z" transform="translate(-447.66 -534.76)" style="fill:url(#linear-gradient-50)"/><path d="M1084.6,3239.87c-35.94-1-54.52-5.24-64.13-9.16,0,3.57,0,7.21.11,11,.13,4,3.11,7.24,6.77,7.22l197.31-1.28c6.3,0,10-7.34,7.25-13.11C1206,3236.64,1140.15,3241.43,1084.6,3239.87Z" transform="translate(-447.66 -534.76)" style="fill:url(#linear-gradient-51)"/><path d="M1231.91,3234.51a8.82,8.82,0,0,0-.78-1.49c-17.43-24.35-61.81-72.83-149.5-93.86l-42.07-1.33s-18.74,32.56-19.09,92.88c9.61,3.92,28.19,8.16,64.13,9.16C1140.15,3241.43,1206,3236.64,1231.91,3234.51Z" transform="translate(-447.66 -534.76)" style="fill:url(#linear-gradient-52)"/><path d="M1029.88,3076c.66,3.1,9.42,50.31,12.81,68.61a9.13,9.13,0,0,0,8.22,7.76c7.21.41,18.83.45,28.82-2.26,5.39-1.46,9-7,8.63-13.06l-4.71-74.66Z" transform="translate(-447.66 -534.76)" style="fill:url(#linear-gradient-53)"/><path d="M998,2204.45s57.87,397.67,99.64,870.9c.78,8.81-6.25,16.48-14.9,18.31-12.76,2.68-31.52,5.87-47,5.44a17.42,17.42,0,0,1-16.61-14.55c-14.23-83.44-115.76-531.24-142.4-629.8,0,0-30.61,418.65-20.83,635.84a10.29,10.29,0,0,1-9.08,10.71,173.19,173.19,0,0,1-37.76-.11,13.78,13.78,0,0,1-12.28-11.69c-10.13-70.62-68.46-490.95-66-793.74.14-17.07,20-157.36,20-157.36Z" transform="translate(-447.66 -534.76)" style="fill:url(#linear-gradient-54)"/><path d="M742.09,2227.37a16.36,16.36,0,0,1-10.74-13.79c-7.7-74.67-45-537.62,190.29-728.06,0,0,13.49-35.3,124.38,51.47s51.52,177.71,25,303.15c-32.12,151.79-88.49,275.87-63.55,369.28a13,13,0,0,1-7.93,15.52C913.37,2256.69,827.56,2257.74,742.09,2227.37Z" transform="translate(-447.66 -534.76)" style="fill:url(#linear-gradient-55)"/><path d="M1013.4,1346.81c-.07,6.59-94,140-94,140s16.86,33.21,97.36,60.17l69.48-142.86Z" transform="translate(-447.66 -534.76)" style="fill:url(#linear-gradient-56)"/><path d="M1087.36,1270.35s33.43,76.79,35.67,117.09,10.93,66.45-35.67,74.56-85.85-15.1-107.12-55.24c0,0-33.32-61.86-25.84-87.19S1087.36,1270.35,1087.36,1270.35Z" transform="translate(-447.66 -534.76)" style="fill:url(#linear-gradient-57)"/><path d="M996.17,1377.9l2.65-1.17a6.39,6.39,0,0,0,3.12-8.79c-6.57-12.69-19.38-41.79-2.83-48.57,21.33-8.75,105.81-26,124-55.95,17.52-28.81,2-66-21.33-76.58a3.21,3.21,0,0,0-4.2,1.37l-1.94,3.68a3.16,3.16,0,0,1-5.84-.6h0a3.16,3.16,0,0,0-5.71-.82c-5.6,9-20.72,23.51-61.17,31-57.49,10.61-95.5,33.88-96.44,73.6a3.17,3.17,0,0,1-4.9,2.62c-4.25-2.59-11-3.81-20.12,3.83-15.79,13.27-9.33,47.71,25.28,76a3.14,3.14,0,0,1-.15,5.07c-6.27,4.08-15.62,13.8,8.61,26.75,25.07,13.4,43.79,12.31,51,11.12a3.15,3.15,0,0,0,2.55-3.81l-7.69-34.91a3.17,3.17,0,0,1,3.09-3.85Z" transform="translate(-447.66 -534.76)" style="fill:url(#linear-gradient-58)"/><path d="M997.61,1385.27s-12.75-49-34.74-35.3,11.41,55,29.09,56.79Z" transform="translate(-447.66 -534.76)" style="fill:url(#linear-gradient-59)"/><path d="M1081.69,1577.25l6.48,174a478.93,478.93,0,0,0,52.59,14.93c10.43-33.59,33.4-74.81,52.21-105.46C1123.86,1636.25,1081.69,1577.25,1081.69,1577.25Z" transform="translate(-447.66 -534.76)" style="fill:url(#linear-gradient-60)"/><path d="M1426.72,1574.29c-94.8,102.35-171.53,108.38-233.75,86.38-18.81,30.65-41.78,71.87-52.21,105.46,253.15,55.81,312.77-176.92,312.77-176.92Z" transform="translate(-447.66 -534.76)" style="fill:url(#linear-gradient-61)"/><path d="M1445.94,1563.42s10.92-11.72,31.13-8,38.2,10.71,50.8,0,17,3.66,17,3.66l-37.7,28.67Z" transform="translate(-447.66 -534.76)" style="fill:url(#linear-gradient-62)"/><path d="M1423.39,1583.47s7.48-31.29,30-27,73.74,32.13,86.93,27,30.06-17.4,38.72-13.07l-15.25,19s39.19-22.61,45.94-8.72l-65.21,36.7S1449.14,1607.79,1423.39,1583.47Z" transform="translate(-447.66 -534.76)" style="fill:url(#linear-gradient-63)"/><path d="M976.46,1804.91s178.22,149.26,370.68,84.13a45.8,45.8,0,0,1,36.13,2.73L1438.6,1921a49.39,49.39,0,0,0,65.45-18.33c7.69-12.86,14.25-27.55,15.55-41.61l-108.26-43.83,8-13.28s-52.85-4.48-66.69,33.41c0,0-100.68,41.87-270.47-144.88C1082.16,1692.47,1005.11,1758,976.46,1804.91Z" transform="translate(-447.66 -534.76)" style="fill:url(#linear-gradient-64)"/><path d="M966.87,1803.37a3,3,0,0,1-1.71-.53c-75-50.7-110.34-132.54-110.69-133.36a3.05,3.05,0,1,1,5.62-2.38c.34.8,35,81,108.49,130.69a3.05,3.05,0,0,1-1.71,5.58Z" transform="translate(-447.66 -534.76)" style="fill:url(#linear-gradient-65)"/><path d="M1078.64,1689.94a3,3,0,0,1-2.56-1.4c-.23-.35-23.16-36-66.82-114.23-13.43-24-31.08-39.27-52.45-45.25-35.4-9.89-69.52,9.09-69.86,9.28a3.05,3.05,0,0,1-3-5.31c1.47-.83,36.56-20.46,74.46-9.86,23,6.43,41.93,22.63,56.19,48.16,43.55,78,66.39,113.55,66.62,113.91a3.05,3.05,0,0,1-2.57,4.7Z" transform="translate(-447.66 -534.76)" style="fill:url(#linear-gradient-66)"/></svg>