<svg id="Victors" xmlns="http://www.w3.org/2000/svg" xmlns:xlink="http://www.w3.org/1999/xlink" width="869.172" height="801.774" viewBox="0 0 869.172 801.774">
  <defs>
    <clipPath id="clip-path">
      <rect id="Rectangle_2076" data-name="Rectangle 2076" width="789.036" height="765.964" transform="translate(0 0)" fill="none"/>
    </clipPath>
    <linearGradient id="linear-gradient" y1="0.5" x2="1" y2="0.5" gradientUnits="objectBoundingBox">
      <stop offset="0" stop-color="#93defb"/>
      <stop offset="0.651" stop-color="#ebadf8"/>
      <stop offset="0.998" stop-color="#c7f2e3"/>
    </linearGradient>
    <linearGradient id="linear-gradient-2" x1="-0.773" y1="3.901" x2="0.248" y2="3.901" xlink:href="#linear-gradient"/>
    <linearGradient id="linear-gradient-3" y1="0.5" x2="1" y2="0.5" gradientUnits="objectBoundingBox">
      <stop offset="0" stop-color="#46bfd0"/>
      <stop offset="0.526" stop-color="#7d7fdc"/>
      <stop offset="0.998" stop-color="#ae46e6"/>
    </linearGradient>
    <linearGradient id="linear-gradient-5" y1="0.5" x2="1" y2="0.5" gradientUnits="objectBoundingBox">
      <stop offset="0" stop-color="#46bfd0"/>
      <stop offset="0.998" stop-color="#93defb"/>
    </linearGradient>
    <linearGradient id="linear-gradient-6" x1="0.624" y1="0.032" x2="0.313" y2="1.21" gradientUnits="objectBoundingBox">
      <stop offset="0.002" stop-color="#93defb"/>
      <stop offset="1" stop-color="#46bfd0"/>
    </linearGradient>
  </defs>
  <g id="Shape_2" data-name="Shape 2">
    <path id="Path_2933" data-name="Path 2933" d="M468.3,253.763a4.555,4.555,0,0,0,1.786-.361q-2.725-3.458-5.633-6.753a4.547,4.547,0,0,0-.754,2.511A4.6,4.6,0,0,0,468.3,253.763Z" transform="translate(-56.518 -168.943)" fill="#93defb"/>
    <path id="Path_2934" data-name="Path 2934" d="M456.8,259.686h4.46c0-3.076-1.384-4.42-4.46-4.42Z" transform="translate(-60.226 -164.307)" fill="#93defb"/>
    <path id="Path_2935" data-name="Path 2935" d="M459.5,241.618c-.9-.86-1.16-1.736-2.7-2.574v3.466A3.568,3.568,0,0,0,459.5,241.618Z" transform="translate(-60.226 -173.034)" fill="#93defb"/>
    <path id="Path_2943" data-name="Path 2943" d="M456.8,262.931c3.076,0,4.46-.177,4.46-4.791H456.8Z" transform="translate(-60.226 -162.761)" fill="#93defb"/>
    <path id="Path_2965" data-name="Path 2965" d="M419.792,218.349Z" transform="translate(-80.135 -184.166)" fill="#93defb"/>
    <path id="Path_2966" data-name="Path 2966" d="M421.938,220.356a11.241,11.241,0,0,1-.867-1.559c-1.486-.463-2.191-1.489-5.267-1.916v3.476Z" transform="translate(-82.281 -184.956)" fill="#93defb"/>
    <path id="Path_2967" data-name="Path 2967" d="M458.463,255.266a4.893,4.893,0,0,0-4.746,4.42h4.746Z" transform="translate(-61.886 -164.307)" fill="#93defb"/>
    <path id="Path_2968" data-name="Path 2968" d="M438.365,256.148c-2.544,0-4.6,4.6-4.6,4.6h9.209S440.906,256.148,438.365,256.148Z" transform="translate(-72.62 -163.833)" fill="#93defb"/>
    <path id="Path_2969" data-name="Path 2969" d="M459.575,243.715v-3.466c0-1.178-3.468-2.312-4.8-3.445a4.47,4.47,0,0,0-.224,2.308C454.546,241.653,456.5,243.715,459.575,243.715Z" transform="translate(-61.46 -174.239)" fill="#93defb"/>
    <path id="Path_2970" data-name="Path 2970" d="M433.762,239.916a4.6,4.6,0,1,0,4.6-4.606A4.6,4.6,0,0,0,433.762,239.916Z" transform="translate(-72.62 -175.042)" fill="#93defb"/>
    <path id="Path_2971" data-name="Path 2971" d="M428.387,254.494a4.6,4.6,0,1,0-4.6-4.6A4.6,4.6,0,0,0,428.387,254.494Z" transform="translate(-77.987 -169.674)" fill="#93defb"/>
    <path id="Path_2972" data-name="Path 2972" d="M443.74,249.891a4.6,4.6,0,1,0,4.6-4.6A4.6,4.6,0,0,0,443.74,249.891Z" transform="translate(-67.253 -169.674)" fill="#93defb"/>
    <path id="Path_2973" data-name="Path 2973" d="M423.785,229.939a4.6,4.6,0,1,0,4.6-4.6A4.6,4.6,0,0,0,423.785,229.939Z" transform="translate(-77.987 -180.409)" fill="#93defb"/>
    <path id="Path_2974" data-name="Path 2974" d="M448.272,232.481c.149,0,.289-.031.44-.045q-2.388-1.686-4.84-3.28A4.584,4.584,0,0,0,448.272,232.481Z" transform="translate(-67.182 -178.353)" fill="#93defb"/>
    <path id="Path_2975" data-name="Path 2975" d="M415.8,255.266v5.958h6.135C421.938,258.148,421.955,255.266,415.8,255.266Z" transform="translate(-82.281 -164.307)" fill="#93defb"/>
    <path id="Path_2976" data-name="Path 2976" d="M415.8,235.31v9.209c6.152,0,4.6-2.062,4.6-4.6S421.955,235.31,415.8,235.31Z" transform="translate(-82.281 -175.042)" fill="#93defb"/>
    <path id="Path_2977" data-name="Path 2977" d="M415.8,218.349v4.6c6.152,0,5.369-1.45,5.369-3.992h0l.766.6h-4.6Z" transform="translate(-82.281 -184.166)" fill="#93defb"/>
    <path id="Path_2988" data-name="Path 2988" d="M458.463,262.931V258.14h-4.746C453.717,262.754,455.387,262.931,458.463,262.931Z" transform="translate(-61.886 -162.761)" fill="#93defb"/>
    <path id="Path_2989" data-name="Path 2989" d="M438.365,263.748c2.541,0,4.606.006,4.606-4.608h-9.209C433.762,263.754,435.821,263.748,438.365,263.748Z" transform="translate(-72.62 -162.224)" fill="#93defb"/>
    <path id="Path_2990" data-name="Path 2990" d="M415.8,262.393c6.152,0,6.135,1.361,6.135-3.253H415.8Z" transform="translate(-82.281 -162.224)" fill="#93defb"/>
    <path id="Path_3029" data-name="Path 3029" d="M413.807,218.349Z" transform="translate(-83.355 -184.166)" fill="#93defb"/>
    <path id="Path_3030" data-name="Path 3030" d="M413.807,219.2h4.608v-1.938c0-.312-2.195-.815-3.305-1.1A3.764,3.764,0,0,0,413.807,219.2Z" transform="translate(-83.355 -185.341)" fill="#93defb"/>
    <path id="Path_3031" data-name="Path 3031" d="M399.838,218.349Z" transform="translate(-90.869 -184.166)" fill="#93defb"/>
    <path id="Path_3032" data-name="Path 3032" d="M393.852,218.349Z" transform="translate(-94.089 -184.166)" fill="#93defb"/>
    <path id="Path_3033" data-name="Path 3033" d="M398.455,216.149a4.294,4.294,0,0,0-4.6,4.6h9.206A4.294,4.294,0,0,0,398.455,216.149Z" transform="translate(-94.089 -185.35)" fill="#93defb"/>
    <path id="Path_3034" data-name="Path 3034" d="M379.882,218.349Z" transform="translate(-101.604 -184.166)" fill="#93defb"/>
    <path id="Path_3035" data-name="Path 3035" d="M376.8,221.176h4.735c0-3.076-.121-5.819-4.735-5.819Z" transform="translate(-103.26 -185.776)" fill="#93defb"/>
    <path id="Path_3036" data-name="Path 3036" d="M418.415,255.266a4.745,4.745,0,0,0-4.608,4.42h4.608Z" transform="translate(-83.355 -164.307)" fill="#93defb"/>
    <path id="Path_3037" data-name="Path 3037" d="M398.455,256.148c-2.542,0-4.6,4.6-4.6,4.6h9.206S401,256.148,398.455,256.148Z" transform="translate(-94.089 -163.833)" fill="#93defb"/>
    <path id="Path_3038" data-name="Path 3038" d="M412.811,239.916c0,2.541,4.6,4.6,4.6,4.6V235.31S412.811,237.375,412.811,239.916Z" transform="translate(-83.891 -175.042)" fill="#93defb"/>
    <path id="Path_3039" data-name="Path 3039" d="M398.455,244.519a4.6,4.6,0,1,0-4.6-4.6A4.6,4.6,0,0,0,398.455,244.519Z" transform="translate(-94.089 -175.042)" fill="#93defb"/>
    <path id="Path_3040" data-name="Path 3040" d="M388.477,254.494a4.6,4.6,0,1,0-4.6-4.6A4.607,4.607,0,0,0,388.477,254.494Z" transform="translate(-99.457 -169.674)" fill="#93defb"/>
    <path id="Path_3041" data-name="Path 3041" d="M408.434,254.494a4.6,4.6,0,1,0-4.6-4.6A4.605,4.605,0,0,0,408.434,254.494Z" transform="translate(-88.722 -169.674)" fill="#93defb"/>
    <path id="Path_3042" data-name="Path 3042" d="M383.874,229.939a4.6,4.6,0,1,0,4.6-4.6A4.6,4.6,0,0,0,383.874,229.939Z" transform="translate(-99.457 -180.409)" fill="#93defb"/>
    <path id="Path_3043" data-name="Path 3043" d="M408.434,234.537a4.6,4.6,0,1,0-4.6-4.6A4.6,4.6,0,0,0,408.434,234.537Z" transform="translate(-88.722 -180.409)" fill="#93defb"/>
    <path id="Path_3044" data-name="Path 3044" d="M376.8,261.224h4.735c0-3.076-.121-5.958-4.735-5.958Z" transform="translate(-103.26 -164.307)" fill="#93defb"/>
    <path id="Path_3045" data-name="Path 3045" d="M381.4,239.916c0-2.541-3.062-4.606-4.6-4.606v9.209C378.341,244.519,381.4,242.457,381.4,239.916Z" transform="translate(-103.26 -175.042)" fill="#93defb"/>
    <path id="Path_3046" data-name="Path 3046" d="M418.415,218.461l0-.321h-4.6l0,.165h0a4.42,4.42,0,0,0,4.6,4.761Z" transform="translate(-83.355 -184.279)" fill="#93defb"/>
    <path id="Path_3047" data-name="Path 3047" d="M392.8,218.261h0c0,2.541,2.837,4.683,5.383,4.683s5.383-2.179,5.383-4.725h0v1.416H392.8Z" transform="translate(-94.653 -184.236)" fill="#93defb"/>
    <path id="Path_3048" data-name="Path 3048" d="M376.8,218.349v4.6c4.614,0,4.668-1.45,4.668-3.992h0l.068.6h-4.6Z" transform="translate(-103.26 -184.166)" fill="#93defb"/>
    <path id="Path_3059" data-name="Path 3059" d="M418.415,258.14h-4.608c0,4.614,1.532,4.791,4.608,4.791Z" transform="translate(-83.355 -162.761)" fill="#93defb"/>
    <path id="Path_3060" data-name="Path 3060" d="M398.455,263.748c2.544,0,4.6.006,4.6-4.608h-9.206C393.852,263.754,395.913,263.748,398.455,263.748Z" transform="translate(-94.089 -162.224)" fill="#93defb"/>
    <path id="Path_3061" data-name="Path 3061" d="M376.8,262.393c4.614,0,4.735,1.361,4.735-3.253H376.8Z" transform="translate(-103.26 -162.224)" fill="#93defb"/>
    <path id="Path_3102" data-name="Path 3102" d="M378.367,215.356a4.5,4.5,0,0,0-4.471,4.282h4.471Z" transform="translate(-104.824 -185.776)" fill="#93defb"/>
    <path id="Path_3103" data-name="Path 3103" d="M373.9,218.349Z" transform="translate(-104.824 -184.166)" fill="#93defb"/>
    <path id="Path_3104" data-name="Path 3104" d="M359.928,218.349Z" transform="translate(-112.338 -184.166)" fill="#93defb"/>
    <path id="Path_3105" data-name="Path 3105" d="M360.861,217.717c-.966.3-1.909.647-2.867.97h2.974A4.578,4.578,0,0,0,360.861,217.717Z" transform="translate(-113.378 -184.506)" fill="#93defb"/>
    <path id="Path_3106" data-name="Path 3106" d="M378.367,255.266a4.6,4.6,0,0,0-4.471,4.42h4.471Z" transform="translate(-104.824 -164.307)" fill="#93defb"/>
    <path id="Path_3107" data-name="Path 3107" d="M358.543,256.148c-2.541,0-4.6,4.6-4.6,4.6h9.209S361.084,256.148,358.543,256.148Z" transform="translate(-115.559 -163.833)" fill="#93defb"/>
    <path id="Path_3108" data-name="Path 3108" d="M378.413,244.519V235.31a4.6,4.6,0,0,0,0,9.209Z" transform="translate(-104.87 -175.042)" fill="#93defb"/>
    <path id="Path_3109" data-name="Path 3109" d="M358.543,235.31a4.6,4.6,0,1,0,4.606,4.606A4.608,4.608,0,0,0,358.543,235.31Z" transform="translate(-115.559 -175.042)" fill="#93defb"/>
    <path id="Path_3110" data-name="Path 3110" d="M348.567,254.494a4.6,4.6,0,1,0-4.6-4.6A4.6,4.6,0,0,0,348.567,254.494Z" transform="translate(-120.926 -169.674)" fill="#93defb"/>
    <path id="Path_3111" data-name="Path 3111" d="M368.524,254.494a4.6,4.6,0,1,0-4.606-4.6A4.6,4.6,0,0,0,368.524,254.494Z" transform="translate(-110.191 -169.674)" fill="#93defb"/>
    <path id="Path_3112" data-name="Path 3112" d="M348.567,234.537a4.6,4.6,0,1,0-4.6-4.6A4.6,4.6,0,0,0,348.567,234.537Z" transform="translate(-120.926 -180.409)" fill="#93defb"/>
    <path id="Path_3113" data-name="Path 3113" d="M363.918,229.939a4.6,4.6,0,1,0,4.606-4.6A4.6,4.6,0,0,0,363.918,229.939Z" transform="translate(-110.191 -180.409)" fill="#93defb"/>
    <path id="Path_3114" data-name="Path 3114" d="M336.8,261.224h4.872c0-3.076-.258-5.958-4.872-5.958Z" transform="translate(-124.777 -164.307)" fill="#93defb"/>
    <path id="Path_3115" data-name="Path 3115" d="M342.4,239.916a4.3,4.3,0,0,0-4.6-4.606v9.209A4.294,4.294,0,0,0,342.4,239.916Z" transform="translate(-124.239 -175.042)" fill="#93defb"/>
    <path id="Path_3116" data-name="Path 3116" d="M373.853,218.3h0c0,2.541,1.461,4.761,4.537,4.761v-4.6l.134-.321h-4.6Z" transform="translate(-104.847 -184.279)" fill="#93defb"/>
    <path id="Path_3117" data-name="Path 3117" d="M362.781,219.635H360c-1.929,1.538-3.84.72-5.732,1.443a4.186,4.186,0,0,0,4,2.25c2.542,0,4.509-2.564,4.509-5.109h0v1.416Z" transform="translate(-115.383 -184.236)" fill="#93defb"/>
    <path id="Path_3128" data-name="Path 3128" d="M378.367,262.931V258.14H373.9C373.9,262.754,375.291,262.931,378.367,262.931Z" transform="translate(-104.824 -162.761)" fill="#93defb"/>
    <path id="Path_3129" data-name="Path 3129" d="M358.543,263.748c2.541,0,4.606.006,4.606-4.608H353.94C353.94,263.754,356,263.748,358.543,263.748Z" transform="translate(-115.559 -162.224)" fill="#93defb"/>
    <path id="Path_3130" data-name="Path 3130" d="M336.8,262.393c4.614,0,4.872,1.361,4.872-3.253H336.8Z" transform="translate(-124.777 -162.224)" fill="#93defb"/>
    <path id="Path_3170" data-name="Path 3170" d="M338.32,259.686v-4.42a4.473,4.473,0,0,0-4.337,4.42Z" transform="translate(-126.294 -164.307)" fill="#93defb"/>
    <path id="Path_3171" data-name="Path 3171" d="M318.633,256.148c-2.544,0-4.6,4.6-4.6,4.6h9.206S321.172,256.148,318.633,256.148Z" transform="translate(-137.027 -163.833)" fill="#93defb"/>
    <path id="Path_3172" data-name="Path 3172" d="M339.413,244.519V235.31c-4.614,0-4.6,2.065-4.6,4.606S334.8,244.519,339.413,244.519Z" transform="translate(-125.849 -175.042)" fill="#93defb"/>
    <path id="Path_3173" data-name="Path 3173" d="M333.216,249.891a4.6,4.6,0,1,0-4.6,4.6A4.6,4.6,0,0,0,333.216,249.891Z" transform="translate(-131.66 -169.674)" fill="#93defb"/>
    <path id="Path_3184" data-name="Path 3184" d="M338.32,258.14h-4.337c0,4.614,1.261,4.791,4.337,4.791Z" transform="translate(-126.294 -162.761)" fill="#93defb"/>
    <path id="Path_3185" data-name="Path 3185" d="M314.031,259.14c0,4.614,2.058,4.608,4.6,4.608s4.6.006,4.6-4.608Z" transform="translate(-137.027 -162.224)" fill="#93defb"/>
    <path id="Path_3229" data-name="Path 3229" d="M703.889,274.5l-3.839-3.839c3.143-3.145,6.265-3.294,8.777-3.411,2.13-.1,3.537-.171,5.2-1.829s1.726-3.065,1.822-5.194c.118-2.51.269-5.632,3.411-8.775s6.27-3.294,8.779-3.414c2.13-.1,3.54-.168,5.2-1.829s1.729-3.07,1.83-5.2c.123-2.513.271-5.635,3.417-8.782s6.27-3.3,8.78-3.419c2.133-.1,3.542-.168,5.2-1.833l3.839,3.84c-3.147,3.145-6.27,3.3-8.781,3.417-2.132.1-3.54.171-5.2,1.832s-1.729,3.073-1.833,5.2c-.118,2.51-.269,5.635-3.414,8.78s-6.269,3.3-8.777,3.416c-2.133.1-3.54.168-5.2,1.829s-1.724,3.063-1.825,5.194c-.118,2.51-.266,5.633-3.413,8.774s-6.263,3.3-8.775,3.414C706.955,272.768,705.549,272.836,703.889,274.5Z" transform="translate(70.623 -179.529)" fill="#f996ac"/>
  </g>
  <g id="Shape_1" data-name="Shape 1">
    <g id="Group_1340" data-name="Group 1340" transform="translate(80.136 0)" clip-path="url(#clip-path)">
      <g id="Group_1339" data-name="Group 1339" transform="translate(49.247 63.478)">
        <path id="Path_2926" data-name="Path 2926" d="M978.093,397.675s-113.653-35.4-193.771-83.843S622.226,218.809,532.8,244.9s-96.886,98.747-122.968,180.725-121.109,262.709-9.318,370.773S609.184,952.9,808.544,856.014c133.472-64.865,187.7-119.039,249.664-178.864C1112.243,624.979,1238.938,492.7,978.093,397.675Z" transform="translate(-248.51 -237.397)" fill="url(#linear-gradient)"/>
        <path id="Path_2927" data-name="Path 2927" d="M302.064,630.257s-73.825,97.1,69.591,197.736,398.889,125.6,479.117-37.93S974.3,578.6,856.611,445.089s-467.428-267.358-488.4-116.656S410.311,510.443,302.064,630.257Z" transform="translate(-283.067 -224.261)" opacity="0.3" fill="url(#linear-gradient-2)" style="mix-blend-mode: multiply;isolation: isolate"/>
        <path id="Path_2928" data-name="Path 2928" d="M808.54,727.789c121.876-59.23,177.681-109.545,233.634-163.389-30.1-38.147-50.427-76.85-114.107-75.022-103.4,2.965-162.039,118.383-242.854,63.352-68.585-46.7-102.932-57.216-207.5-40.987-22.74,3.528-94.135,21.548-124.755-35.975-12.406,68.1-7.6,139.089,47.545,192.4C512.294,776.232,609.18,824.674,808.54,727.789Z" transform="translate(-248.507 -109.172)" fill="url(#linear-gradient-3)"/>
        <path id="Path_2929" data-name="Path 2929" d="M993.476,651.627c-121.061-142.766-254.805,1.366-298.129-97.98C618.34,377.053,518.733,468.1,425.907,376.1a95.049,95.049,0,0,0-17.3-13.863C380.93,445.868,290.4,622.8,400.509,729.24,512.3,837.3,609.184,885.746,808.544,788.861c93.323-45.352,147.9-85.478,193.476-125.962A135.627,135.627,0,0,0,993.476,651.627Z" transform="translate(-248.511 -170.244)" opacity="0.3" fill="url(#linear-gradient)" style="mix-blend-mode: multiply;isolation: isolate"/>
      </g>
    </g>
    <path id="Path_2930" data-name="Path 2930" d="M760.221,346.726A41.918,41.918,0,1,1,718.3,304.807,41.919,41.919,0,0,1,760.221,346.726Z" transform="translate(57.893 -137.658)" fill="#93defb" opacity="0.3" style="mix-blend-mode: multiply;isolation: isolate"/>
    <path id="Path_2931" data-name="Path 2931" d="M737.776,366.9a43.307,43.307,0,0,1-37.521-64.951A41.911,41.911,0,1,0,759.413,361.1,43.108,43.108,0,0,1,737.776,366.9Z" transform="translate(63.106 -139.197)" fill="url(#linear-gradient-5)"/>
    <path id="Path_2932" data-name="Path 2932" d="M769.912,337.034A41.919,41.919,0,1,1,728,295.115,41.917,41.917,0,0,1,769.912,337.034Z" transform="translate(63.106 -142.872)" fill="url(#linear-gradient-6)"/>
    <path id="Path_2936" data-name="Path 2936" d="M478.277,297.147c-2.545,0-4.6-.011-4.6,4.6h9.2C482.879,297.136,480.818,297.147,478.277,297.147Z" transform="translate(-51.151 -141.779)" fill="#93defb"/>
    <path id="Path_2937" data-name="Path 2937" d="M473.674,279.828a4.6,4.6,0,1,0,4.6-4.6A4.6,4.6,0,0,0,473.674,279.828Z" transform="translate(-51.151 -153.572)" fill="#93defb"/>
    <path id="Path_2938" data-name="Path 2938" d="M468.3,294.406a4.6,4.6,0,1,0-4.6-4.6A4.6,4.6,0,0,0,468.3,294.406Z" transform="translate(-56.518 -148.205)" fill="#93defb"/>
    <path id="Path_2939" data-name="Path 2939" d="M483.65,289.662a4.6,4.6,0,0,0,4.6,4.6c.114,0,.223-.025.335-.034-.646-2.956-1.392-5.875-2.2-8.768A4.6,4.6,0,0,0,483.65,289.662Z" transform="translate(-45.784 -148.064)" fill="#93defb"/>
    <path id="Path_2940" data-name="Path 2940" d="M463.7,269.852a4.6,4.6,0,1,0,4.6-4.606A4.6,4.6,0,0,0,463.7,269.852Z" transform="translate(-56.518 -158.939)" fill="#93defb"/>
    <path id="Path_2941" data-name="Path 2941" d="M456.8,299.733h4.46s-1.384-4.555-4.46-4.555Z" transform="translate(-60.226 -142.838)" fill="#93defb"/>
    <path id="Path_2942" data-name="Path 2942" d="M457.8,275.223v9.206a4.6,4.6,0,0,0,0-9.206Z" transform="translate(-59.688 -153.572)" fill="#93defb"/>
    <path id="Path_2944" data-name="Path 2944" d="M473.674,338.084Z" transform="translate(-51.151 -119.757)" fill="#93defb"/>
    <path id="Path_2945" data-name="Path 2945" d="M479.659,338.084Z" transform="translate(-47.931 -119.757)" fill="#93defb"/>
    <path id="Path_2946" data-name="Path 2946" d="M478.277,335.148c-2.545,0-4.6,3.064-4.6,4.6h9.2C482.879,338.212,480.818,335.148,478.277,335.148Z" transform="translate(-51.151 -121.337)" fill="#93defb"/>
    <path id="Path_2947" data-name="Path 2947" d="M478.277,315.136a4.6,4.6,0,1,0,4.6,4.6A4.6,4.6,0,0,0,478.277,315.136Z" transform="translate(-51.151 -132.102)" fill="#93defb"/>
    <path id="Path_2948" data-name="Path 2948" d="M472.9,329.714a4.6,4.6,0,1,0-4.606,4.6A4.605,4.605,0,0,0,472.9,329.714Z" transform="translate(-56.518 -126.735)" fill="#93defb"/>
    <path id="Path_2949" data-name="Path 2949" d="M488.255,325.113a4.6,4.6,0,1,0,0,9.2,4.4,4.4,0,0,0,1.26-.2q.768-4.076,1.306-8.222A4.571,4.571,0,0,0,488.255,325.113Z" transform="translate(-45.784 -126.735)" fill="#93defb"/>
    <path id="Path_2950" data-name="Path 2950" d="M468.3,305.159a4.6,4.6,0,1,0,4.606,4.6A4.6,4.6,0,0,0,468.3,305.159Z" transform="translate(-56.518 -137.469)" fill="#93defb"/>
    <path id="Path_2951" data-name="Path 2951" d="M488.255,305.159a4.6,4.6,0,1,0,3.817,7.174c-.051-1.815-.117-3.622-.226-5.418A4.575,4.575,0,0,0,488.255,305.159Z" transform="translate(-45.784 -137.469)" fill="#93defb"/>
    <path id="Path_2952" data-name="Path 2952" d="M459.7,338.084Z" transform="translate(-58.666 -119.757)" fill="#93defb"/>
    <path id="Path_2953" data-name="Path 2953" d="M456.8,339.781h4.46s-1.384-4.691-4.46-4.691Z" transform="translate(-60.226 -121.368)" fill="#93defb"/>
    <path id="Path_2954" data-name="Path 2954" d="M457.8,315.136v9.2a4.6,4.6,0,0,0,0-9.2Z" transform="translate(-59.688 -132.102)" fill="#93defb"/>
    <path id="Path_2955" data-name="Path 2955" d="M473.674,300.14s2.058,4.606,4.6,4.606,4.6-4.606,4.6-4.606Z" transform="translate(-51.151 -140.168)" fill="#93defb"/>
    <path id="Path_2956" data-name="Path 2956" d="M456.8,302.8c3.076,0,4.46-3.117,4.46-4.655H456.8Z" transform="translate(-60.226 -141.244)" fill="#93defb"/>
    <path id="Path_2957" data-name="Path 2957" d="M478.277,355.045a4.6,4.6,0,0,0-.141,9.2q2.016-3.6,3.845-7.3A4.586,4.586,0,0,0,478.277,355.045Z" transform="translate(-51.151 -110.634)" fill="#93defb"/>
    <path id="Path_2958" data-name="Path 2958" d="M472.9,369.625a4.6,4.6,0,1,0-4.606,4.6A4.605,4.605,0,0,0,472.9,369.625Z" transform="translate(-56.518 -105.266)" fill="#93defb"/>
    <path id="Path_2959" data-name="Path 2959" d="M463.7,349.672a4.6,4.6,0,1,0,4.6-4.6A4.6,4.6,0,0,0,463.7,349.672Z" transform="translate(-56.518 -115.999)" fill="#93defb"/>
    <path id="Path_2960" data-name="Path 2960" d="M456.8,375v3.288h4.46C461.263,376.752,459.879,375,456.8,375Z" transform="translate(-60.226 -99.898)" fill="#93defb"/>
    <path id="Path_2961" data-name="Path 2961" d="M457.8,355.045v9.211a4.605,4.605,0,0,0,0-9.211Z" transform="translate(-59.688 -110.634)" fill="#93defb"/>
    <path id="Path_2962" data-name="Path 2962" d="M482.493,338.15H474.8v-.028h0c0,2.544,1.3,4.578,3.845,4.578s3.845-2.019,3.845-4.56h0v.009Z" transform="translate(-50.543 -119.737)" fill="#93defb"/>
    <path id="Path_2963" data-name="Path 2963" d="M461.312,338.17h-4.6l.14-.086v4.6a4.207,4.207,0,0,0,4.529-4.563h0Z" transform="translate(-60.275 -119.757)" fill="#93defb"/>
    <path id="Path_2964" data-name="Path 2964" d="M457.8,382.526c3.076,0,2.922-1.31,2.922-4.386H457.8Z" transform="translate(-59.688 -98.21)" fill="#93defb"/>
    <path id="Path_2978" data-name="Path 2978" d="M458.463,295.178a5,5,0,0,0-4.746,4.555h4.746Z" transform="translate(-61.886 -142.838)" fill="#93defb"/>
    <path id="Path_2979" data-name="Path 2979" d="M442.971,301.75c0-4.614-2.065-4.6-4.606-4.6s-4.6-.011-4.6,4.6Z" transform="translate(-72.62 -141.779)" fill="#93defb"/>
    <path id="Path_2980" data-name="Path 2980" d="M454.81,279.828a4.3,4.3,0,0,0,4.6,4.6v-9.206A4.3,4.3,0,0,0,454.81,279.828Z" transform="translate(-61.298 -153.572)" fill="#93defb"/>
    <path id="Path_2981" data-name="Path 2981" d="M438.365,284.429a4.6,4.6,0,1,0-4.6-4.6A4.605,4.605,0,0,0,438.365,284.429Z" transform="translate(-72.62 -153.572)" fill="#93defb"/>
    <path id="Path_2982" data-name="Path 2982" d="M428.387,294.406a4.6,4.6,0,1,0-4.6-4.6A4.6,4.6,0,0,0,428.387,294.406Z" transform="translate(-77.987 -148.205)" fill="#93defb"/>
    <path id="Path_2983" data-name="Path 2983" d="M448.343,294.406a4.6,4.6,0,1,0-4.6-4.6A4.6,4.6,0,0,0,448.343,294.406Z" transform="translate(-67.253 -148.205)" fill="#93defb"/>
    <path id="Path_2984" data-name="Path 2984" d="M428.387,274.447a4.6,4.6,0,1,0-4.6-4.6A4.6,4.6,0,0,0,428.387,274.447Z" transform="translate(-77.987 -158.939)" fill="#93defb"/>
    <path id="Path_2985" data-name="Path 2985" d="M443.74,269.852a4.6,4.6,0,1,0,4.6-4.606A4.6,4.6,0,0,0,443.74,269.852Z" transform="translate(-67.253 -158.939)" fill="#93defb"/>
    <path id="Path_2986" data-name="Path 2986" d="M415.8,295.178v4.555h6.135S421.955,295.178,415.8,295.178Z" transform="translate(-82.281 -142.838)" fill="#93defb"/>
    <path id="Path_2987" data-name="Path 2987" d="M415.8,275.223v9.206c6.152,0,4.6-2.059,4.6-4.6S421.955,275.223,415.8,275.223Z" transform="translate(-82.281 -153.572)" fill="#93defb"/>
    <path id="Path_2991" data-name="Path 2991" d="M458.463,335.09c-3.076,0-4.743,3.153-4.746,4.691h4.746Z" transform="translate(-61.886 -121.368)" fill="#93defb"/>
    <path id="Path_2992" data-name="Path 2992" d="M453.717,338.084Z" transform="translate(-61.886 -119.757)" fill="#93defb"/>
    <path id="Path_2993" data-name="Path 2993" d="M438.365,335.148c-2.544,0-4.6,3.064-4.6,4.6h9.209C442.968,338.212,440.906,335.148,438.365,335.148Z" transform="translate(-72.62 -121.337)" fill="#93defb"/>
    <path id="Path_2994" data-name="Path 2994" d="M439.75,338.084Z" transform="translate(-69.399 -119.757)" fill="#93defb"/>
    <path id="Path_2995" data-name="Path 2995" d="M433.762,338.084Z" transform="translate(-72.62 -119.757)" fill="#93defb"/>
    <path id="Path_2996" data-name="Path 2996" d="M454.81,319.738a4.3,4.3,0,0,0,4.6,4.6v-9.2A4.3,4.3,0,0,0,454.81,319.738Z" transform="translate(-61.298 -132.102)" fill="#93defb"/>
    <path id="Path_2997" data-name="Path 2997" d="M438.365,315.136a4.6,4.6,0,1,0,4.606,4.6A4.6,4.6,0,0,0,438.365,315.136Z" transform="translate(-72.62 -132.102)" fill="#93defb"/>
    <path id="Path_2998" data-name="Path 2998" d="M432.993,329.714a4.6,4.6,0,1,0-4.606,4.6A4.606,4.606,0,0,0,432.993,329.714Z" transform="translate(-77.987 -126.735)" fill="#93defb"/>
    <path id="Path_2999" data-name="Path 2999" d="M452.946,329.714a4.6,4.6,0,1,0-4.6,4.6A4.6,4.6,0,0,0,452.946,329.714Z" transform="translate(-67.253 -126.735)" fill="#93defb"/>
    <path id="Path_3000" data-name="Path 3000" d="M428.387,305.159a4.6,4.6,0,1,0,4.606,4.6A4.6,4.6,0,0,0,428.387,305.159Z" transform="translate(-77.987 -137.469)" fill="#93defb"/>
    <path id="Path_3001" data-name="Path 3001" d="M448.343,305.159a4.6,4.6,0,1,0,4.6,4.6A4.6,4.6,0,0,0,448.343,305.159Z" transform="translate(-67.253 -137.469)" fill="#93defb"/>
    <path id="Path_3002" data-name="Path 3002" d="M415.8,339.781h6.135s.017-4.691-6.135-4.691Z" transform="translate(-82.281 -121.368)" fill="#93defb"/>
    <path id="Path_3003" data-name="Path 3003" d="M419.792,338.084Z" transform="translate(-80.135 -119.757)" fill="#93defb"/>
    <path id="Path_3004" data-name="Path 3004" d="M415.8,315.136v9.2c6.152,0,4.6-2.058,4.6-4.6S421.955,315.136,415.8,315.136Z" transform="translate(-82.281 -132.102)" fill="#93defb"/>
    <path id="Path_3005" data-name="Path 3005" d="M458.463,302.8V298.14h-4.746C453.717,299.678,455.387,302.8,458.463,302.8Z" transform="translate(-61.886 -141.244)" fill="#93defb"/>
    <path id="Path_3006" data-name="Path 3006" d="M438.365,304.746c2.541,0,4.606-4.606,4.606-4.606h-9.209S435.821,304.746,438.365,304.746Z" transform="translate(-72.62 -140.168)" fill="#93defb"/>
    <path id="Path_3007" data-name="Path 3007" d="M415.8,302.8c6.152,0,6.135-1.579,6.135-4.655H415.8Z" transform="translate(-82.281 -141.244)" fill="#93defb"/>
    <path id="Path_3008" data-name="Path 3008" d="M458.463,375c-3.076,0-4.746,1.75-4.746,4.826h4.746Z" transform="translate(-61.886 -99.898)" fill="#93defb"/>
    <path id="Path_3009" data-name="Path 3009" d="M438.365,375.147a4.3,4.3,0,0,0-4.6,4.6h9.209A4.3,4.3,0,0,0,438.365,375.147Z" transform="translate(-72.62 -99.82)" fill="#93defb"/>
    <path id="Path_3010" data-name="Path 3010" d="M454.81,359.648a4.3,4.3,0,0,0,4.6,4.608v-9.211A4.3,4.3,0,0,0,454.81,359.648Z" transform="translate(-61.298 -110.634)" fill="#93defb"/>
    <path id="Path_3011" data-name="Path 3011" d="M438.365,355.045a4.605,4.605,0,1,0,4.606,4.6A4.6,4.6,0,0,0,438.365,355.045Z" transform="translate(-72.62 -110.634)" fill="#93defb"/>
    <path id="Path_3012" data-name="Path 3012" d="M428.387,365.024a4.6,4.6,0,1,0,4.606,4.6A4.6,4.6,0,0,0,428.387,365.024Z" transform="translate(-77.987 -105.266)" fill="#93defb"/>
    <path id="Path_3013" data-name="Path 3013" d="M448.343,365.024a4.6,4.6,0,1,0,4.6,4.6A4.6,4.6,0,0,0,448.343,365.024Z" transform="translate(-67.253 -105.266)" fill="#93defb"/>
    <path id="Path_3014" data-name="Path 3014" d="M428.387,345.071a4.6,4.6,0,1,0,4.606,4.6A4.6,4.6,0,0,0,428.387,345.071Z" transform="translate(-77.987 -115.999)" fill="#93defb"/>
    <path id="Path_3015" data-name="Path 3015" d="M448.343,345.071a4.6,4.6,0,1,0,4.6,4.6A4.6,4.6,0,0,0,448.343,345.071Z" transform="translate(-67.253 -115.999)" fill="#93defb"/>
    <path id="Path_3016" data-name="Path 3016" d="M415.8,379.828h6.135c0-3.076.017-4.826-6.135-4.826Z" transform="translate(-82.281 -99.898)" fill="#93defb"/>
    <path id="Path_3017" data-name="Path 3017" d="M415.8,355.045v9.211c6.152,0,4.6-2.062,4.6-4.608S421.955,355.045,415.8,355.045Z" transform="translate(-82.281 -110.634)" fill="#93defb"/>
    <path id="Path_3018" data-name="Path 3018" d="M458.463,338.084l-.14.086h-4.606l.074-.045h0a4.32,4.32,0,0,0,4.672,4.563Z" transform="translate(-61.886 -119.757)" fill="#93defb"/>
    <path id="Path_3019" data-name="Path 3019" d="M445.106,338.15H432.8v-.028h0c0,2.544,3.606,4.578,6.152,4.578s6.152-2.019,6.152-4.56h0Z" transform="translate(-73.136 -119.737)" fill="#93defb"/>
    <path id="Path_3020" data-name="Path 3020" d="M421.938,338.17h-4.6l-1.535-.086v4.6c6.152,0,5.369-2.018,5.369-4.566h0Z" transform="translate(-82.281 -119.757)" fill="#93defb"/>
    <path id="Path_3021" data-name="Path 3021" d="M438.365,394.958a4.6,4.6,0,0,0-1.647,8.889q3.121-1.629,6.164-3.4a4.768,4.768,0,0,0,.089-.884A4.606,4.606,0,0,0,438.365,394.958Z" transform="translate(-72.62 -89.163)" fill="#93defb"/>
    <path id="Path_3022" data-name="Path 3022" d="M427.208,404.97a4.614,4.614,0,0,0-2.216.872C425.735,405.564,426.467,405.265,427.208,404.97Z" transform="translate(-77.338 -83.778)" fill="#93defb"/>
    <path id="Path_3023" data-name="Path 3023" d="M423.785,389.586a4.6,4.6,0,1,0,4.6-4.6A4.6,4.6,0,0,0,423.785,389.586Z" transform="translate(-77.987 -94.53)" fill="#93defb"/>
    <path id="Path_3024" data-name="Path 3024" d="M443.74,389.586a4.6,4.6,0,1,0,4.6-4.6A4.6,4.6,0,0,0,443.74,389.586Z" transform="translate(-67.253 -94.53)" fill="#93defb"/>
    <path id="Path_3025" data-name="Path 3025" d="M415.8,394.958v9.206c6.152,0,4.6-2.059,4.6-4.6S421.955,394.958,415.8,394.958Z" transform="translate(-82.281 -89.163)" fill="#93defb"/>
    <path id="Path_3026" data-name="Path 3026" d="M458.463,378.14h-4.746a4.866,4.866,0,0,0,4.746,4.386Z" transform="translate(-61.886 -98.21)" fill="#93defb"/>
    <path id="Path_3027" data-name="Path 3027" d="M438.365,382.748a4.3,4.3,0,0,0,4.606-4.608h-9.209A4.3,4.3,0,0,0,438.365,382.748Z" transform="translate(-72.62 -98.21)" fill="#93defb"/>
    <path id="Path_3028" data-name="Path 3028" d="M415.8,378.14v4.386c6.152,0,6.135-1.31,6.135-4.386Z" transform="translate(-82.281 -98.21)" fill="#93defb"/>
    <path id="Path_3049" data-name="Path 3049" d="M418.415,295.178c-3.076,0-4.608,3.017-4.608,4.555h4.608Z" transform="translate(-83.355 -142.838)" fill="#93defb"/>
    <path id="Path_3050" data-name="Path 3050" d="M398.455,297.147c-2.542,0-4.6-.011-4.6,4.6h9.206C403.058,297.136,401,297.147,398.455,297.147Z" transform="translate(-94.089 -141.779)" fill="#93defb"/>
    <path id="Path_3051" data-name="Path 3051" d="M412.811,279.828c0,2.542,4.6,4.6,4.6,4.6v-9.206S412.811,277.284,412.811,279.828Z" transform="translate(-83.891 -153.572)" fill="#93defb"/>
    <path id="Path_3052" data-name="Path 3052" d="M398.455,284.429a4.6,4.6,0,1,0-4.6-4.6A4.6,4.6,0,0,0,398.455,284.429Z" transform="translate(-94.089 -153.572)" fill="#93defb"/>
    <path id="Path_3053" data-name="Path 3053" d="M388.477,294.406a4.6,4.6,0,1,0-4.6-4.6A4.607,4.607,0,0,0,388.477,294.406Z" transform="translate(-99.457 -148.205)" fill="#93defb"/>
    <path id="Path_3054" data-name="Path 3054" d="M408.434,294.406a4.6,4.6,0,1,0-4.6-4.6A4.605,4.605,0,0,0,408.434,294.406Z" transform="translate(-88.722 -148.205)" fill="#93defb"/>
    <path id="Path_3055" data-name="Path 3055" d="M388.477,274.447a4.6,4.6,0,1,0-4.6-4.6A4.6,4.6,0,0,0,388.477,274.447Z" transform="translate(-99.457 -158.939)" fill="#93defb"/>
    <path id="Path_3056" data-name="Path 3056" d="M408.434,274.447a4.6,4.6,0,1,0-4.6-4.6A4.6,4.6,0,0,0,408.434,274.447Z" transform="translate(-88.722 -158.939)" fill="#93defb"/>
    <path id="Path_3057" data-name="Path 3057" d="M376.8,295.178v4.555h4.735S381.417,295.178,376.8,295.178Z" transform="translate(-103.26 -142.838)" fill="#93defb"/>
    <path id="Path_3058" data-name="Path 3058" d="M381.4,279.828c0-2.544-3.062-4.6-4.6-4.6v9.206C378.341,284.429,381.4,282.37,381.4,279.828Z" transform="translate(-103.26 -153.572)" fill="#93defb"/>
    <path id="Path_3062" data-name="Path 3062" d="M413.807,338.084Z" transform="translate(-83.355 -119.757)" fill="#93defb"/>
    <path id="Path_3063" data-name="Path 3063" d="M418.415,335.09c-3.076,0-4.606,3.153-4.608,4.691h4.608Z" transform="translate(-83.355 -121.368)" fill="#93defb"/>
    <path id="Path_3064" data-name="Path 3064" d="M393.852,338.084Z" transform="translate(-94.089 -119.757)" fill="#93defb"/>
    <path id="Path_3065" data-name="Path 3065" d="M399.838,338.084Z" transform="translate(-90.869 -119.757)" fill="#93defb"/>
    <path id="Path_3066" data-name="Path 3066" d="M398.455,335.148c-2.542,0-4.6,3.064-4.6,4.6h9.206C403.057,338.212,401,335.148,398.455,335.148Z" transform="translate(-94.089 -121.337)" fill="#93defb"/>
    <path id="Path_3067" data-name="Path 3067" d="M412.811,319.738c0,2.545,4.6,4.6,4.6,4.6v-9.2S412.811,317.2,412.811,319.738Z" transform="translate(-83.891 -132.102)" fill="#93defb"/>
    <path id="Path_3068" data-name="Path 3068" d="M398.455,315.136a4.6,4.6,0,1,0,4.6,4.6A4.6,4.6,0,0,0,398.455,315.136Z" transform="translate(-94.089 -132.102)" fill="#93defb"/>
    <path id="Path_3069" data-name="Path 3069" d="M393.083,329.714a4.6,4.6,0,1,0-4.606,4.6A4.608,4.608,0,0,0,393.083,329.714Z" transform="translate(-99.457 -126.735)" fill="#93defb"/>
    <path id="Path_3070" data-name="Path 3070" d="M413.038,329.714a4.6,4.6,0,1,0-4.6,4.6A4.607,4.607,0,0,0,413.038,329.714Z" transform="translate(-88.722 -126.735)" fill="#93defb"/>
    <path id="Path_3071" data-name="Path 3071" d="M388.477,305.159a4.6,4.6,0,1,0,4.606,4.6A4.6,4.6,0,0,0,388.477,305.159Z" transform="translate(-99.457 -137.469)" fill="#93defb"/>
    <path id="Path_3072" data-name="Path 3072" d="M408.434,305.159a4.6,4.6,0,1,0,4.6,4.6A4.6,4.6,0,0,0,408.434,305.159Z" transform="translate(-88.722 -137.469)" fill="#93defb"/>
    <path id="Path_3073" data-name="Path 3073" d="M376.8,339.781h4.735s-.121-4.691-4.735-4.691Z" transform="translate(-103.26 -121.368)" fill="#93defb"/>
    <path id="Path_3074" data-name="Path 3074" d="M379.882,338.084Z" transform="translate(-101.604 -119.757)" fill="#93defb"/>
    <path id="Path_3075" data-name="Path 3075" d="M376.8,315.136v9.2c1.538,0,4.6-2.058,4.6-4.6S378.341,315.136,376.8,315.136Z" transform="translate(-103.26 -132.102)" fill="#93defb"/>
    <path id="Path_3076" data-name="Path 3076" d="M418.415,298.14h-4.608c0,1.538,1.532,4.655,4.608,4.655Z" transform="translate(-83.355 -141.244)" fill="#93defb"/>
    <path id="Path_3077" data-name="Path 3077" d="M398.455,304.746c2.544,0,4.6-4.606,4.6-4.606h-9.206S395.913,304.746,398.455,304.746Z" transform="translate(-94.089 -140.168)" fill="#93defb"/>
    <path id="Path_3078" data-name="Path 3078" d="M376.8,302.8c4.614,0,4.735-1.579,4.735-4.655H376.8Z" transform="translate(-103.26 -141.244)" fill="#93defb"/>
    <path id="Path_3079" data-name="Path 3079" d="M418.415,375c-3.076,0-4.608,1.75-4.608,4.826h4.608Z" transform="translate(-83.355 -99.898)" fill="#93defb"/>
    <path id="Path_3080" data-name="Path 3080" d="M398.455,375.147a4.3,4.3,0,0,0-4.6,4.6h9.206A4.3,4.3,0,0,0,398.455,375.147Z" transform="translate(-94.089 -99.82)" fill="#93defb"/>
    <path id="Path_3081" data-name="Path 3081" d="M412.811,359.648c0,2.545,4.6,4.608,4.6,4.608v-9.211S412.811,357.107,412.811,359.648Z" transform="translate(-83.891 -110.634)" fill="#93defb"/>
    <path id="Path_3082" data-name="Path 3082" d="M398.455,355.045a4.605,4.605,0,1,0,4.6,4.6A4.6,4.6,0,0,0,398.455,355.045Z" transform="translate(-94.089 -110.634)" fill="#93defb"/>
    <path id="Path_3083" data-name="Path 3083" d="M388.477,365.024a4.6,4.6,0,1,0,4.606,4.6A4.6,4.6,0,0,0,388.477,365.024Z" transform="translate(-99.457 -105.266)" fill="#93defb"/>
    <path id="Path_3084" data-name="Path 3084" d="M408.434,365.024a4.6,4.6,0,1,0,4.6,4.6A4.6,4.6,0,0,0,408.434,365.024Z" transform="translate(-88.722 -105.266)" fill="#93defb"/>
    <path id="Path_3085" data-name="Path 3085" d="M388.477,345.071a4.6,4.6,0,1,0,4.606,4.6A4.6,4.6,0,0,0,388.477,345.071Z" transform="translate(-99.457 -115.999)" fill="#93defb"/>
    <path id="Path_3086" data-name="Path 3086" d="M408.434,345.071a4.6,4.6,0,1,0,4.6,4.6A4.6,4.6,0,0,0,408.434,345.071Z" transform="translate(-88.722 -115.999)" fill="#93defb"/>
    <path id="Path_3087" data-name="Path 3087" d="M376.8,379.828h4.735c0-3.076-.121-4.826-4.735-4.826Z" transform="translate(-103.26 -99.898)" fill="#93defb"/>
    <path id="Path_3088" data-name="Path 3088" d="M376.8,355.045v9.211c1.538,0,4.6-2.062,4.6-4.608S378.341,355.045,376.8,355.045Z" transform="translate(-103.26 -110.634)" fill="#93defb"/>
    <path id="Path_3089" data-name="Path 3089" d="M418.415,338.084l0,.086h-4.6l0-.045h0a4.266,4.266,0,0,0,4.6,4.563Z" transform="translate(-83.355 -119.757)" fill="#93defb"/>
    <path id="Path_3090" data-name="Path 3090" d="M403.569,338.15H392.8v-.028h0c0,2.544,2.837,4.578,5.383,4.578s5.383-2.019,5.383-4.56h0Z" transform="translate(-94.653 -119.737)" fill="#93defb"/>
    <path id="Path_3091" data-name="Path 3091" d="M381.538,338.17h-4.6l-.134-.086v4.6c4.614,0,4.668-2.018,4.668-4.566h0Z" transform="translate(-103.26 -119.757)" fill="#93defb"/>
    <path id="Path_3092" data-name="Path 3092" d="M412.811,399.561c0,2.544,4.6,4.6,4.6,4.6v-9.206S412.811,397.017,412.811,399.561Z" transform="translate(-83.891 -89.163)" fill="#93defb"/>
    <path id="Path_3093" data-name="Path 3093" d="M398.455,394.958a4.6,4.6,0,1,0,4.6,4.6A4.6,4.6,0,0,0,398.455,394.958Z" transform="translate(-94.089 -89.163)" fill="#93defb"/>
    <path id="Path_3094" data-name="Path 3094" d="M388.477,404.936a4.6,4.6,0,1,0,4.606,4.6A4.6,4.6,0,0,0,388.477,404.936Z" transform="translate(-99.457 -83.796)" fill="#93defb"/>
    <path id="Path_3095" data-name="Path 3095" d="M413.038,409.536a4.6,4.6,0,1,0-6.349,4.257c1.621-.257,3.227-.551,4.829-.861A4.575,4.575,0,0,0,413.038,409.536Z" transform="translate(-88.722 -83.796)" fill="#93defb"/>
    <path id="Path_3096" data-name="Path 3096" d="M388.477,384.981a4.6,4.6,0,1,0,4.606,4.6A4.6,4.6,0,0,0,388.477,384.981Z" transform="translate(-99.457 -94.53)" fill="#93defb"/>
    <path id="Path_3097" data-name="Path 3097" d="M403.829,389.586a4.6,4.6,0,1,0,4.6-4.6A4.6,4.6,0,0,0,403.829,389.586Z" transform="translate(-88.722 -94.53)" fill="#93defb"/>
    <path id="Path_3098" data-name="Path 3098" d="M376.8,394.958v9.206c1.538,0,4.6-2.059,4.6-4.6S378.341,394.958,376.8,394.958Z" transform="translate(-103.26 -89.163)" fill="#93defb"/>
    <path id="Path_3099" data-name="Path 3099" d="M418.415,378.14h-4.608a4.718,4.718,0,0,0,4.608,4.386Z" transform="translate(-83.355 -98.21)" fill="#93defb"/>
    <path id="Path_3100" data-name="Path 3100" d="M393.852,378.14a4.6,4.6,0,1,0,9.206,0Z" transform="translate(-94.089 -98.21)" fill="#93defb"/>
    <path id="Path_3101" data-name="Path 3101" d="M376.8,378.14v4.386c4.614,0,4.735-1.31,4.735-4.386Z" transform="translate(-103.26 -98.21)" fill="#93defb"/>
    <path id="Path_3118" data-name="Path 3118" d="M378.367,295.178c-3.076,0-4.471,3.017-4.471,4.555h4.471Z" transform="translate(-104.824 -142.838)" fill="#93defb"/>
    <path id="Path_3119" data-name="Path 3119" d="M358.543,297.147c-2.541,0-4.6-.011-4.6,4.6h9.209C363.149,297.136,361.084,297.147,358.543,297.147Z" transform="translate(-115.559 -141.779)" fill="#93defb"/>
    <path id="Path_3120" data-name="Path 3120" d="M378.413,284.429v-9.206a4.6,4.6,0,1,0,0,9.206Z" transform="translate(-104.87 -153.572)" fill="#93defb"/>
    <path id="Path_3121" data-name="Path 3121" d="M358.543,284.429a4.6,4.6,0,1,0-4.6-4.6A4.605,4.605,0,0,0,358.543,284.429Z" transform="translate(-115.559 -153.572)" fill="#93defb"/>
    <path id="Path_3122" data-name="Path 3122" d="M348.567,285.2a4.6,4.6,0,1,0,4.6,4.6A4.6,4.6,0,0,0,348.567,285.2Z" transform="translate(-120.926 -148.205)" fill="#93defb"/>
    <path id="Path_3123" data-name="Path 3123" d="M368.524,294.406a4.6,4.6,0,1,0-4.606-4.6A4.6,4.6,0,0,0,368.524,294.406Z" transform="translate(-110.191 -148.205)" fill="#93defb"/>
    <path id="Path_3124" data-name="Path 3124" d="M348.567,265.246a4.6,4.6,0,1,0,4.6,4.606A4.6,4.6,0,0,0,348.567,265.246Z" transform="translate(-120.926 -158.939)" fill="#93defb"/>
    <path id="Path_3125" data-name="Path 3125" d="M368.524,274.447a4.6,4.6,0,1,0-4.606-4.6A4.6,4.6,0,0,0,368.524,274.447Z" transform="translate(-110.191 -158.939)" fill="#93defb"/>
    <path id="Path_3126" data-name="Path 3126" d="M336.8,295.178v4.555h4.872S341.417,295.178,336.8,295.178Z" transform="translate(-124.777 -142.838)" fill="#93defb"/>
    <path id="Path_3127" data-name="Path 3127" d="M337.8,275.223v9.206a4.6,4.6,0,0,0,0-9.206Z" transform="translate(-124.239 -153.572)" fill="#93defb"/>
    <path id="Path_3131" data-name="Path 3131" d="M378.367,335.09c-3.076,0-4.468,3.153-4.471,4.691h4.471Z" transform="translate(-104.824 -121.368)" fill="#93defb"/>
    <path id="Path_3132" data-name="Path 3132" d="M373.9,338.084Z" transform="translate(-104.824 -119.757)" fill="#93defb"/>
    <path id="Path_3133" data-name="Path 3133" d="M353.94,338.084Z" transform="translate(-115.559 -119.757)" fill="#93defb"/>
    <path id="Path_3134" data-name="Path 3134" d="M358.543,335.148c-2.541,0-4.6,3.064-4.6,4.6h9.209C363.148,338.212,361.084,335.148,358.543,335.148Z" transform="translate(-115.559 -121.337)" fill="#93defb"/>
    <path id="Path_3135" data-name="Path 3135" d="M359.928,338.084Z" transform="translate(-112.338 -119.757)" fill="#93defb"/>
    <path id="Path_3136" data-name="Path 3136" d="M373.81,319.738a4.3,4.3,0,0,0,4.6,4.6v-9.2A4.3,4.3,0,0,0,373.81,319.738Z" transform="translate(-104.87 -132.102)" fill="#93defb"/>
    <path id="Path_3137" data-name="Path 3137" d="M358.543,315.136a4.6,4.6,0,1,0,4.606,4.6A4.6,4.6,0,0,0,358.543,315.136Z" transform="translate(-115.559 -132.102)" fill="#93defb"/>
    <path id="Path_3138" data-name="Path 3138" d="M353.17,329.714a4.6,4.6,0,1,0-4.6,4.6A4.6,4.6,0,0,0,353.17,329.714Z" transform="translate(-120.926 -126.735)" fill="#93defb"/>
    <path id="Path_3139" data-name="Path 3139" d="M373.126,329.714a4.6,4.6,0,1,0-4.6,4.6A4.605,4.605,0,0,0,373.126,329.714Z" transform="translate(-110.191 -126.735)" fill="#93defb"/>
    <path id="Path_3140" data-name="Path 3140" d="M348.567,305.159a4.6,4.6,0,1,0,4.6,4.6A4.6,4.6,0,0,0,348.567,305.159Z" transform="translate(-120.926 -137.469)" fill="#93defb"/>
    <path id="Path_3141" data-name="Path 3141" d="M368.524,305.159a4.6,4.6,0,1,0,4.6,4.6A4.6,4.6,0,0,0,368.524,305.159Z" transform="translate(-110.191 -137.469)" fill="#93defb"/>
    <path id="Path_3142" data-name="Path 3142" d="M336.8,339.781h4.872s-.258-4.691-4.872-4.691Z" transform="translate(-124.777 -121.368)" fill="#93defb"/>
    <path id="Path_3143" data-name="Path 3143" d="M339.971,338.084Z" transform="translate(-123.073 -119.757)" fill="#93defb"/>
    <path id="Path_3144" data-name="Path 3144" d="M337.8,315.136v9.2a4.6,4.6,0,0,0,0-9.2Z" transform="translate(-124.239 -132.102)" fill="#93defb"/>
    <path id="Path_3145" data-name="Path 3145" d="M378.367,298.14H373.9c0,1.538,1.395,4.655,4.471,4.655Z" transform="translate(-104.824 -141.244)" fill="#93defb"/>
    <path id="Path_3146" data-name="Path 3146" d="M358.543,304.746c2.541,0,4.606-4.606,4.606-4.606H353.94S356,304.746,358.543,304.746Z" transform="translate(-115.559 -140.168)" fill="#93defb"/>
    <path id="Path_3147" data-name="Path 3147" d="M336.8,302.8c4.614,0,4.872-1.579,4.872-4.655H336.8Z" transform="translate(-124.777 -141.244)" fill="#93defb"/>
    <path id="Path_3148" data-name="Path 3148" d="M378.367,375c-3.076,0-4.471,1.75-4.471,4.826h4.471Z" transform="translate(-104.824 -99.898)" fill="#93defb"/>
    <path id="Path_3149" data-name="Path 3149" d="M358.543,375.147a4.3,4.3,0,0,0-4.6,4.6h9.209A4.3,4.3,0,0,0,358.543,375.147Z" transform="translate(-115.559 -99.82)" fill="#93defb"/>
    <path id="Path_3150" data-name="Path 3150" d="M373.81,359.648a4.3,4.3,0,0,0,4.6,4.608v-9.211A4.3,4.3,0,0,0,373.81,359.648Z" transform="translate(-104.87 -110.634)" fill="#93defb"/>
    <path id="Path_3151" data-name="Path 3151" d="M358.543,355.045a4.605,4.605,0,1,0,4.606,4.6A4.6,4.6,0,0,0,358.543,355.045Z" transform="translate(-115.559 -110.634)" fill="#93defb"/>
    <path id="Path_3152" data-name="Path 3152" d="M348.567,365.024a4.6,4.6,0,1,0,4.6,4.6A4.6,4.6,0,0,0,348.567,365.024Z" transform="translate(-120.926 -105.266)" fill="#93defb"/>
    <path id="Path_3153" data-name="Path 3153" d="M368.524,365.024a4.6,4.6,0,1,0,4.6,4.6A4.6,4.6,0,0,0,368.524,365.024Z" transform="translate(-110.191 -105.266)" fill="#93defb"/>
    <path id="Path_3154" data-name="Path 3154" d="M348.567,345.071a4.6,4.6,0,1,0,4.6,4.6A4.6,4.6,0,0,0,348.567,345.071Z" transform="translate(-120.926 -115.999)" fill="#93defb"/>
    <path id="Path_3155" data-name="Path 3155" d="M368.524,345.071a4.6,4.6,0,1,0,4.6,4.6A4.6,4.6,0,0,0,368.524,345.071Z" transform="translate(-110.191 -115.999)" fill="#93defb"/>
    <path id="Path_3156" data-name="Path 3156" d="M336.8,379.828h4.872c0-3.076-.258-4.826-4.872-4.826Z" transform="translate(-124.777 -99.898)" fill="#93defb"/>
    <path id="Path_3157" data-name="Path 3157" d="M337.8,355.045v9.211a4.605,4.605,0,0,0,0-9.211Z" transform="translate(-124.239 -110.634)" fill="#93defb"/>
    <path id="Path_3158" data-name="Path 3158" d="M378.39,338.084l.134.086h-4.6l-.066-.045h0a4.213,4.213,0,0,0,4.537,4.563Z" transform="translate(-104.847 -119.757)" fill="#93defb"/>
    <path id="Path_3159" data-name="Path 3159" d="M362.493,338.15H354.8v-.028h0c0,2.544,1.3,4.578,3.845,4.578s3.845-2.019,3.845-4.56h0Z" transform="translate(-115.095 -119.737)" fill="#93defb"/>
    <path id="Path_3160" data-name="Path 3160" d="M341.675,338.17h-4.6l-.269-.086v4.6c4.614,0,4.734-2.018,4.734-4.566h0Z" transform="translate(-124.777 -119.757)" fill="#93defb"/>
    <path id="Path_3161" data-name="Path 3161" d="M373.81,399.561a4.3,4.3,0,0,0,4.6,4.6v-9.206A4.3,4.3,0,0,0,373.81,399.561Z" transform="translate(-104.87 -89.163)" fill="#93defb"/>
    <path id="Path_3162" data-name="Path 3162" d="M358.543,394.958a4.6,4.6,0,1,0,4.606,4.6A4.6,4.6,0,0,0,358.543,394.958Z" transform="translate(-115.559 -89.163)" fill="#93defb"/>
    <path id="Path_3163" data-name="Path 3163" d="M368.524,404.936a4.6,4.6,0,0,0-4.606,4.6,4.748,4.748,0,0,0,.12,1.013c2.642.707,5.306,1.358,8,1.924a4.576,4.576,0,0,0-3.514-7.537Z" transform="translate(-110.191 -83.796)" fill="#93defb"/>
    <path id="Path_3164" data-name="Path 3164" d="M343.962,389.586a4.6,4.6,0,1,0,4.6-4.6A4.6,4.6,0,0,0,343.962,389.586Z" transform="translate(-120.926 -94.53)" fill="#93defb"/>
    <path id="Path_3165" data-name="Path 3165" d="M363.918,389.586a4.6,4.6,0,1,0,4.606-4.6A4.6,4.6,0,0,0,363.918,389.586Z" transform="translate(-110.191 -94.53)" fill="#93defb"/>
    <path id="Path_3166" data-name="Path 3166" d="M336.8,394.958v2.824c1.538.933,3.124,1.835,4.64,2.716a4.609,4.609,0,0,0,.031-.937C341.474,397.017,341.417,394.958,336.8,394.958Z" transform="translate(-124.777 -89.163)" fill="#93defb"/>
    <path id="Path_3167" data-name="Path 3167" d="M378.367,378.14H373.9a4.578,4.578,0,0,0,4.471,4.386Z" transform="translate(-104.824 -98.21)" fill="#93defb"/>
    <path id="Path_3168" data-name="Path 3168" d="M353.94,378.14a4.6,4.6,0,1,0,9.209,0Z" transform="translate(-115.559 -98.21)" fill="#93defb"/>
    <path id="Path_3169" data-name="Path 3169" d="M336.8,382.526c4.614,0,4.872-1.31,4.872-4.386H336.8Z" transform="translate(-124.777 -98.21)" fill="#93defb"/>
    <path id="Path_3174" data-name="Path 3174" d="M338.32,295.178c-3.076,0-4.337,3.017-4.337,4.555h4.337Z" transform="translate(-126.294 -142.838)" fill="#93defb"/>
    <path id="Path_3175" data-name="Path 3175" d="M318.633,297.147c-2.544,0-4.6-.011-4.6,4.6h9.206C323.237,297.136,321.172,297.147,318.633,297.147Z" transform="translate(-137.027 -141.779)" fill="#93defb"/>
    <path id="Path_3176" data-name="Path 3176" d="M334.81,279.828c0,2.542-.011,4.6,4.6,4.6v-9.206C334.8,275.223,334.81,277.284,334.81,279.828Z" transform="translate(-125.849 -153.572)" fill="#93defb"/>
    <path id="Path_3177" data-name="Path 3177" d="M318.633,275.223a4.6,4.6,0,1,0,4.6,4.6A4.6,4.6,0,0,0,318.633,275.223Z" transform="translate(-137.027 -153.572)" fill="#93defb"/>
    <path id="Path_3178" data-name="Path 3178" d="M308.655,285.2a4.6,4.6,0,1,0,4.6,4.6A4.6,4.6,0,0,0,308.655,285.2Z" transform="translate(-142.395 -148.205)" fill="#93defb"/>
    <path id="Path_3179" data-name="Path 3179" d="M328.611,285.2a4.6,4.6,0,1,0,4.6,4.6A4.6,4.6,0,0,0,328.611,285.2Z" transform="translate(-131.66 -148.205)" fill="#93defb"/>
    <path id="Path_3180" data-name="Path 3180" d="M304.052,269.852a4.6,4.6,0,1,0,4.6-4.606A4.6,4.6,0,0,0,304.052,269.852Z" transform="translate(-142.395 -158.939)" fill="#93defb"/>
    <path id="Path_3181" data-name="Path 3181" d="M328.611,265.246a4.6,4.6,0,1,0,4.6,4.606A4.6,4.6,0,0,0,328.611,265.246Z" transform="translate(-131.66 -158.939)" fill="#93defb"/>
    <path id="Path_3182" data-name="Path 3182" d="M297.8,295.178v4.555h3.471C301.274,298.2,299.341,295.178,297.8,295.178Z" transform="translate(-145.757 -142.838)" fill="#93defb"/>
    <path id="Path_3183" data-name="Path 3183" d="M302.08,279.8c0-2.264-.97-4.134-3.12-4.522a5.226,5.226,0,0,0-.146,2.067V284.4C300.352,284.4,302.08,282.341,302.08,279.8Z" transform="translate(-145.229 -153.543)" fill="#93defb"/>
    <path id="Path_3186" data-name="Path 3186" d="M338.32,335.09c-3.076,0-4.332,3.153-4.337,4.691h4.337Z" transform="translate(-126.294 -121.368)" fill="#93defb"/>
    <path id="Path_3187" data-name="Path 3187" d="M333.983,338.084Z" transform="translate(-126.294 -119.757)" fill="#93defb"/>
    <path id="Path_3188" data-name="Path 3188" d="M314.031,338.084Z" transform="translate(-137.027 -119.757)" fill="#93defb"/>
    <path id="Path_3189" data-name="Path 3189" d="M318.633,335.148c-2.544,0-4.6,3.064-4.6,4.6h9.206C323.234,338.212,321.172,335.148,318.633,335.148Z" transform="translate(-137.027 -121.337)" fill="#93defb"/>
    <path id="Path_3190" data-name="Path 3190" d="M320.017,338.084Z" transform="translate(-133.807 -119.757)" fill="#93defb"/>
    <path id="Path_3191" data-name="Path 3191" d="M334.81,319.738c0,2.545-.011,4.6,4.6,4.6v-9.2C334.8,315.136,334.81,317.2,334.81,319.738Z" transform="translate(-125.849 -132.102)" fill="#93defb"/>
    <path id="Path_3192" data-name="Path 3192" d="M318.633,315.136a4.6,4.6,0,1,0,4.6,4.6A4.6,4.6,0,0,0,318.633,315.136Z" transform="translate(-137.027 -132.102)" fill="#93defb"/>
    <path id="Path_3193" data-name="Path 3193" d="M313.26,329.714a4.6,4.6,0,1,0-4.6,4.6A4.6,4.6,0,0,0,313.26,329.714Z" transform="translate(-142.395 -126.735)" fill="#93defb"/>
    <path id="Path_3194" data-name="Path 3194" d="M333.216,329.714a4.6,4.6,0,1,0-4.6,4.6A4.606,4.606,0,0,0,333.216,329.714Z" transform="translate(-131.66 -126.735)" fill="#93defb"/>
    <path id="Path_3195" data-name="Path 3195" d="M308.655,305.159a4.6,4.6,0,1,0,4.6,4.6A4.6,4.6,0,0,0,308.655,305.159Z" transform="translate(-142.395 -137.469)" fill="#93defb"/>
    <path id="Path_3196" data-name="Path 3196" d="M328.611,305.159a4.6,4.6,0,1,0,4.6,4.6A4.6,4.6,0,0,0,328.611,305.159Z" transform="translate(-131.66 -137.469)" fill="#93defb"/>
    <path id="Path_3197" data-name="Path 3197" d="M300.06,338.084Z" transform="translate(-144.543 -119.757)" fill="#93defb"/>
    <path id="Path_3198" data-name="Path 3198" d="M297.8,339.781h3.471c0-1.538-1.933-4.691-3.471-4.691Z" transform="translate(-145.757 -121.368)" fill="#93defb"/>
    <path id="Path_3199" data-name="Path 3199" d="M298.8,315.136v9.2c1.538,0,4.6-2.058,4.6-4.6S300.341,315.136,298.8,315.136Z" transform="translate(-145.219 -132.102)" fill="#93defb"/>
    <path id="Path_3200" data-name="Path 3200" d="M338.32,298.14h-4.337c0,1.538,1.261,4.655,4.337,4.655Z" transform="translate(-126.294 -141.244)" fill="#93defb"/>
    <path id="Path_3201" data-name="Path 3201" d="M318.633,304.746c2.539,0,4.6-4.606,4.6-4.606h-9.206S316.089,304.746,318.633,304.746Z" transform="translate(-137.027 -140.168)" fill="#93defb"/>
    <path id="Path_3202" data-name="Path 3202" d="M297.8,302.257c1.538,0,3.471-1.579,3.471-3.117H297.8Z" transform="translate(-145.757 -140.706)" fill="#93defb"/>
    <path id="Path_3203" data-name="Path 3203" d="M338.32,375c-3.076,0-4.337,1.75-4.337,4.826h4.337Z" transform="translate(-126.294 -99.898)" fill="#93defb"/>
    <path id="Path_3204" data-name="Path 3204" d="M318.553,375.075a4.644,4.644,0,0,0-4.374,3.291c.394.46.789,1.423,1.186,1.423h7.793A4.388,4.388,0,0,0,318.553,375.075Z" transform="translate(-136.947 -99.859)" fill="#93defb"/>
    <path id="Path_3205" data-name="Path 3205" d="M334.81,359.648c0,2.545-.011,4.608,4.6,4.608v-9.211C334.8,355.045,334.81,357.107,334.81,359.648Z" transform="translate(-125.849 -110.634)" fill="#93defb"/>
    <path id="Path_3206" data-name="Path 3206" d="M318.633,355.045a4.605,4.605,0,1,0,4.6,4.6A4.6,4.6,0,0,0,318.633,355.045Z" transform="translate(-137.027 -110.634)" fill="#93defb"/>
    <path id="Path_3207" data-name="Path 3207" d="M312.437,369.625a4.6,4.6,0,0,0-4.6-4.6,4.537,4.537,0,0,0-2.252.612q2.434,3.876,5.1,7.585A4.578,4.578,0,0,0,312.437,369.625Z" transform="translate(-141.573 -105.266)" fill="#93defb"/>
    <path id="Path_3208" data-name="Path 3208" d="M328.611,365.024a4.6,4.6,0,1,0,4.6,4.6A4.6,4.6,0,0,0,328.611,365.024Z" transform="translate(-131.66 -105.266)" fill="#93defb"/>
    <path id="Path_3209" data-name="Path 3209" d="M304.052,349.672a4.6,4.6,0,1,0,4.6-4.6A4.6,4.6,0,0,0,304.052,349.672Z" transform="translate(-142.395 -115.999)" fill="#93defb"/>
    <path id="Path_3210" data-name="Path 3210" d="M328.611,345.071a4.6,4.6,0,1,0,4.6,4.6A4.6,4.6,0,0,0,328.611,345.071Z" transform="translate(-131.66 -115.999)" fill="#93defb"/>
    <path id="Path_3211" data-name="Path 3211" d="M338.366,338.084l.269.086h-4.606l-.132-.045h0c0,2.545,1.393,4.563,4.469,4.563Z" transform="translate(-126.341 -119.757)" fill="#93defb"/>
    <path id="Path_3212" data-name="Path 3212" d="M322.493,338.15H314.8v-.028h0c0,2.544,1.3,4.578,3.845,4.578s3.845-2.019,3.845-4.56h0Z" transform="translate(-136.612 -119.737)" fill="#93defb"/>
    <path id="Path_3213" data-name="Path 3213" d="M301.67,338.17h-4.6l1.132-.086v4.6c1.538,0,4.035-2.018,4.035-4.563h0Z" transform="translate(-146.152 -119.757)" fill="#93defb"/>
    <path id="Path_3214" data-name="Path 3214" d="M335.134,395.961c.935.618,1.884,1.227,2.836,1.821v-2.824A4.554,4.554,0,0,0,335.134,395.961Z" transform="translate(-125.675 -89.163)" fill="#93defb"/>
    <path id="Path_3215" data-name="Path 3215" d="M333.153,389.586a4.593,4.593,0,0,0-9.029-1.2q3.128,2.752,6.407,5.332A4.593,4.593,0,0,0,333.153,389.586Z" transform="translate(-131.598 -94.53)" fill="#93defb"/>
    <path id="Path_3216" data-name="Path 3216" d="M338.32,382.526V378.14h-4.337A4.446,4.446,0,0,0,338.32,382.526Z" transform="translate(-126.294 -98.21)" fill="#93defb"/>
    <path id="Path_3217" data-name="Path 3217" d="M319.062,382.654c2.1-.429,3.68-1.438,3.68-4.514H314.95C316.291,381.216,317.666,381.177,319.062,382.654Z" transform="translate(-136.533 -98.21)" fill="#93defb"/>
    <path id="Path_3218" data-name="Path 3218" d="M301.346,295.178c-3.076,0-7.271,4.555-7.271,4.555h7.271Z" transform="translate(-147.762 -142.838)" fill="#93defb"/>
    <path id="Path_3219" data-name="Path 3219" d="M299.615,276.621c0,2.115-1.593,4.249-2.321,6.41a9.022,9.022,0,0,0,2.321.646Z" transform="translate(-146.03 -152.82)" fill="#93defb"/>
    <path id="Path_3220" data-name="Path 3220" d="M301.346,335.09c-3.076,0-7.27,4.691-7.27,4.691h7.27Z" transform="translate(-147.761 -121.368)" fill="#93defb"/>
    <path id="Path_3221" data-name="Path 3221" d="M294.075,338.084Z" transform="translate(-147.762 -119.757)" fill="#93defb"/>
    <path id="Path_3222" data-name="Path 3222" d="M295.81,319.738a4.3,4.3,0,0,0,4.6,4.6v-9.2A4.3,4.3,0,0,0,295.81,319.738Z" transform="translate(-146.829 -132.102)" fill="#93defb"/>
    <path id="Path_3223" data-name="Path 3223" d="M301.346,298.14h-7.271c0,3.076,4.2,4.655,7.271,4.655Z" transform="translate(-147.762 -141.244)" fill="#93defb"/>
    <path id="Path_3224" data-name="Path 3224" d="M301.346,338.084l-2.67.086h-4.6l1.333-.048h0c0,2.548,2.862,4.566,5.938,4.566Z" transform="translate(-147.762 -119.757)" fill="#93defb"/>
    <rect id="Rectangle_2077" data-name="Rectangle 2077" width="1.083" height="70.579" transform="translate(140.716 445.144) rotate(-45.006)" fill="#46bfd0"/>
    <rect id="Rectangle_2078" data-name="Rectangle 2078" width="1.084" height="70.575" transform="translate(25.835 560.026) rotate(-44.998)" fill="#46bfd0"/>
    <rect id="Rectangle_2079" data-name="Rectangle 2079" width="10.833" height="70.577" transform="translate(44.776 541.084) rotate(-45.002)" fill="#46bfd0"/>
    <rect id="Rectangle_2080" data-name="Rectangle 2080" width="10.831" height="70.579" transform="translate(114.873 470.987) rotate(-45)" fill="#46bfd0"/>
    <rect id="Rectangle_2081" data-name="Rectangle 2081" width="10.831" height="70.576" transform="translate(0 585.86) rotate(-44.997)" fill="#46bfd0"/>
    <rect id="Rectangle_2082" data-name="Rectangle 2082" width="9.228" height="15.379" transform="translate(724.155 104.606)" fill="#441cd4"/>
    <path id="Path_3225" data-name="Path 3225" d="M731.682,724.082l-5.513-9.473-5.513-9.469h22.049l-5.513,9.469Z" transform="translate(81.708 77.692)" fill="#e3c8fa"/>
    <path id="Path_3226" data-name="Path 3226" d="M685.882,678.836a5.859,5.859,0,1,1,5.858-5.858A5.859,5.859,0,0,1,685.882,678.836Z" transform="translate(59.851 57.24)" fill="#e3c8fa"/>
    <rect id="Rectangle_2083" data-name="Rectangle 2083" width="4.884" height="37.097" transform="matrix(0.707, -0.707, 0.707, 0.707, 639.806, 723.119)" fill="#ae46e6"/>
    <rect id="Rectangle_2085" data-name="Rectangle 2085" width="69.291" height="3.585" transform="translate(308.988 504.029) rotate(-45.035)" fill="#fff"/>
    <rect id="Rectangle_2086" data-name="Rectangle 2086" width="69.286" height="3.584" transform="matrix(0.708, -0.707, 0.707, 0.708, 301.791, 496.827)" fill="#fff"/>
    <rect id="Rectangle_2087" data-name="Rectangle 2087" width="69.29" height="3.584" transform="matrix(0.707, -0.707, 0.707, 0.707, 294.644, 489.684)" fill="#fff"/>
    <path id="Path_3227" data-name="Path 3227" d="M215.825,423.666c1.538,0,4.057,3.516,5.406,6.087.941,1.8.794,3.179,1.521,3.179s1.043-1.378,1.992-3.179c1.346-2.571,2.957-6.087,7.028-6.087s5.8,3.519,7.144,6.087c.944,1.8,1.662,3.179,2.391,3.179.781,0,1.636-1.687,2.411-3.179,1.347-2.568,3.174-6.087,7.245-6.087s5.909,3.519,7.253,6.087c.944,1.8,1.716,3.179,2.445,3.179s1.5-1.378,2.444-3.179c1.35-2.568,3.188-6.087,7.254-6.087s6.856,3.519,8.2,6.087a9.894,9.894,0,0,0,3.394,3.179v5.429c-3.076,0-6.859-3.52-8.2-6.087-.778-1.492-2.135-3.177-2.921-3.177s-1.9,1.686-2.678,3.177c-1.347,2.567-3.31,6.087-7.38,6.087s-5.969-3.52-7.314-6.086c-.941-1.8-1.752-3.179-2.481-3.179-.783,0-1.682,1.689-2.458,3.177-1.344,2.567-3.2,6.087-7.265,6.087s-5.916-3.52-7.261-6.087c-.943-1.8-1.723-3.177-2.452-3.177s-1.512,1.378-2.458,3.179c-1.344,2.57-3.19,6.086-7.259,6.086s-4.06-3.516-5.4-6.086a4.818,4.818,0,0,1-.6-3.179Z" transform="translate(-189.889 -73.72)" fill="#f996ac"/>
    <path id="Path_3230" data-name="Path 3230" d="M283.268,694.086l-29.434-29.431L281.986,636.5l29.433,29.431ZM261.51,664.654l21.759,21.751,20.471-20.473-21.754-21.754Z" transform="translate(-169.409 40.769)" fill="#f996ac"/>
    <path id="Path_3231" data-name="Path 3231" d="M550.117,456.6l-.669.669,34.932-34.932a115.229,115.229,0,0,0-12.794-.84L543.3,449.778Z" transform="translate(-13.699 -74.888)" fill="#7d7fdc"/>
    <path id="Path_3232" data-name="Path 3232" d="M537.371,436.187l-.666.668,13.283-13.28a114.594,114.594,0,0,0-18.864,6.356Z" transform="translate(-20.247 -73.769)" fill="#7d7fdc"/>
    <path id="Path_3233" data-name="Path 3233" d="M550.35,446.706l-6.821-6.82h0l-.665.67v0l6.816,6.819Z" transform="translate(-13.931 -64.995)" fill="#7d7fdc"/>
    <path id="Path_3234" data-name="Path 3234" d="M537.7,433.964l-6.247-6.256c-.32.137-.629.269-.937.412l6.518,6.512Z" transform="translate(-20.574 -71.546)" fill="#7d7fdc"/>
    <path id="Path_3235" data-name="Path 3235" d="M625.376,531.208l-.666.674L643.694,512.9a116.472,116.472,0,0,0,1.295-14.933L618.56,524.39Z" transform="translate(26.787 -33.754)" fill="#7d7fdc"/>
    <path id="Path_3236" data-name="Path 3236" d="M642.529,458.164l-49.055,49.057,6.815,6.813,46.973-46.968C645.816,464.048,644.25,461.075,642.529,458.164Z" transform="translate(13.293 -55.163)" fill="#7d7fdc"/>
    <path id="Path_3237" data-name="Path 3237" d="M575.2,489.094l-.674.671,51.421-51.417c-2.633-1.987-5.335-3.822-8.094-5.54l-49.469,49.471Z" transform="translate(-0.201 -68.803)" fill="#7d7fdc"/>
    <path id="Path_3238" data-name="Path 3238" d="M612.836,523.885l-.674.675,37.77-37.776q-1-5.58-2.567-11.07l-41.35,41.356Z" transform="translate(20.039 -45.722)" fill="#7d7fdc"/>
    <path id="Path_3239" data-name="Path 3239" d="M587.75,502.369l-.674.671,51.884-51.882q-3.052-3.679-6.465-7.167l-51.564,51.561Z" transform="translate(6.546 -62.787)" fill="#7d7fdc"/>
    <path id="Path_3240" data-name="Path 3240" d="M562.667,474.056l-.677.666,46.184-46.179q-4.932-2.062-10-3.634l-42.33,42.327Z" transform="translate(-6.95 -73.052)" fill="#7d7fdc"/>
    <path id="Path_3241" data-name="Path 3241" d="M625.611,521.965l-6.816-6.818h0l-.67.671h0l6.82,6.822Z" transform="translate(26.553 -24.511)" fill="#7d7fdc"/>
    <path id="Path_3242" data-name="Path 3242" d="M593.708,490.062l-.671.67,6.821,6.816.665-.672Z" transform="translate(13.058 -38.004)" fill="#7d7fdc"/>
    <path id="Path_3243" data-name="Path 3243" d="M575.519,471.79l-6.93-6.815h0l-.787.668v0l6.929,6.814Z" transform="translate(-0.516 -51.5)" fill="#7d7fdc"/>
    <path id="Path_3244" data-name="Path 3244" d="M613.069,509.42l-6.822-6.816h0l-.665.665h0l6.813,6.825Z" transform="translate(19.806 -31.257)" fill="#7d7fdc"/>
    <path id="Path_3245" data-name="Path 3245" d="M587.819,484.335l-6.582-6.818h0l-.434.668v.006l6.581,6.814Z" transform="translate(6.477 -44.753)" fill="#7d7fdc"/>
    <path id="Path_3246" data-name="Path 3246" d="M562.9,459.176l-6.825-6.608h0l-.672.879h.007l6.815,6.606Z" transform="translate(-7.186 -58.173)" fill="#7d7fdc"/>
    <path id="Path_3247" data-name="Path 3247" d="M543.1,440.322l-.67.67h0l.667-.668Z" transform="translate(-14.166 -64.761)" fill="#7d7fdc"/>
    <path id="Path_3248" data-name="Path 3248" d="M572.664,440.99l-86.436,86.435a115.676,115.676,0,0,0,.464,12.794l92.7-93.076v0l-6.438-6.818Z" transform="translate(-44.398 -64.76)" fill="#7d7fdc"/>
    <path id="Path_3249" data-name="Path 3249" d="M551.885,428.43l-56.636,56.634c-3.093,6.748-4.7,13.737-6.413,20.859l72.232-71.43v0l-7.324-6.512C553.389,428.127,552.234,428.27,551.885,428.43Z" transform="translate(-42.995 -71.402)" fill="#7d7fdc"/>
    <path id="Path_3250" data-name="Path 3250" d="M618.359,515.583l-.671.671v0l.671-.674Z" transform="translate(26.318 -24.276)" fill="#7d7fdc"/>
    <path id="Path_3251" data-name="Path 3251" d="M593.272,490.5h0l-.673.671h0Z" transform="translate(12.823 -37.77)" fill="#7d7fdc"/>
    <path id="Path_3252" data-name="Path 3252" d="M568.185,465.409l-.669.67h0l.673-.665Z" transform="translate(-0.671 -51.266)" fill="#7d7fdc"/>
    <path id="Path_3253" data-name="Path 3253" d="M605.818,503.038l-.674.672v0l.674-.674Z" transform="translate(19.571 -31.024)" fill="#7d7fdc"/>
    <path id="Path_3254" data-name="Path 3254" d="M580.727,477.951l-.667.676h0l.665-.67Z" transform="translate(6.077 -44.519)" fill="#7d7fdc"/>
    <path id="Path_3255" data-name="Path 3255" d="M555.638,452.867l-.667.674h0l.673-.671Z" transform="translate(-7.419 -58.013)" fill="#7d7fdc"/>
    <path id="Path_3256" data-name="Path 3256" d="M647.268,516.257,562.7,600.824a115.007,115.007,0,0,0,14.932-1.3L654.759,522.4h0l-6.821-6.821Z" transform="translate(-3.262 -24.276)" fill="#7d7fdc"/>
    <path id="Path_3257" data-name="Path 3257" d="M630.767,490.6l-.667.83h0L522.9,598.472c2.913,1.722,5.886,3.205,8.9,4.652L636.917,497.97l.67-.612Z" transform="translate(-24.672 -37.715)" fill="#7d7fdc"/>
    <path id="Path_3258" data-name="Path 3258" d="M605.158,466.077,497.54,573.695c1.721,2.761,3.883,5.469,5.863,8.1L613.289,472.229v0l-7.136-6.814Z" transform="translate(-38.313 -51.265)" fill="#7d7fdc"/>
    <path id="Path_3259" data-name="Path 3259" d="M622.981,558.244a114.817,114.817,0,0,0,19.508-26.013l-45.527,45.524A115.046,115.046,0,0,0,622.981,558.244Z" transform="translate(15.169 -15.32)" fill="#7d7fdc"/>
    <path id="Path_3260" data-name="Path 3260" d="M639.945,503.712l-99.5,99.495q5.481,1.562,11.07,2.565l95.913-95.91h0l-6.813-6.825Z" transform="translate(-15.231 -31.025)" fill="#7d7fdc"/>
    <path id="Path_3261" data-name="Path 3261" d="M618.438,478.626,508.721,588.332c2.331,2.27,4.589,4.429,7.051,6.462L625.665,484.771v0l-6.693-6.815Z" transform="translate(-32.298 -44.517)" fill="#7d7fdc"/>
    <path id="Path_3262" data-name="Path 3262" d="M590.113,453.852,489.643,554.32a96.91,96.91,0,0,0,3.631,9.111L597.606,458.212h0l-6.815-5.923Z" transform="translate(-42.56 -58.323)" fill="#7d7fdc"/>
  </g>
</svg>
